<?xml version='1.0' encoding='utf-8'?>
<svg xmlns="http://www.w3.org/2000/svg" width="1920" height="1080" viewBox="0 0 1920 1080" data-theme="light" data-semantic-intent="sequence" data-relation-type="sequence" data-site-visual-identity="heritage-amber">
  <style>
        @font-face {
            font-family: 'Inter';
            src: url('assets/fonts/Inter-Regular.ttf') format('truetype');
            font-weight: 400;
            font-style: normal;
            font-display: swap;
        }
        @font-face {
            font-family: 'Inter';
            src: url('assets/fonts/Inter-Bold.ttf') format('truetype');
            font-weight: 600;
            font-style: normal;
            font-display: swap;
        }
        @font-face {
            font-family: 'Inter';
            src: url('assets/fonts/Inter-Bold.ttf') format('truetype');
            font-weight: 800;
            font-style: normal;
            font-display: swap;
        }
        
:root {
    --background: #f8fafc;
    --panel: #ffffff;
    --primary-text: #0f172a;
    --muted-text: #64748b;
    --inverse-text: #ffffff;
    --border: #e2e8f0;
    --shadow-color: #000000;
    --icon-pad-bg: #1e293b;
    --art-glow: #0891b2;
    --art-glow-opacity: 0.10;
    --art-sheen: #ffffff;
    --art-sheen-opacity: 0.34;
    --art-shadow: #0f172a;
    --art-shadow-opacity: 0.14;
    --art-muted-line: #94a3b8;
    --art-panel-tint: #f1f5f9;
    --semantic-risk: #b91c1c;
    --semantic-warning: #c2410c;
    --semantic-uncertain: #a16207;
    --semantic-evidence: #1d4ed8;
    --semantic-claim: #6d28d9;
    --semantic-positive: #15803d;
    --semantic-outcome: #0e7490;
    --font-family: 'Inter', 'Segoe UI', 'Kalam', Roboto, Helvetica, Arial, sans-serif;
    --radius-xl: 16px;
    --font-family-headline: 'Segoe UI Variable Display', 'Aptos Display', 'Inter', 'Segoe UI', Helvetica, Arial, sans-serif;
    --font-family-body: 'Segoe UI Variable Text', 'Aptos', 'Inter', 'Segoe UI', Helvetica, Arial, sans-serif;
    --font-heading: var(--font-family-headline);
    --font-body: var(--font-family-body);
    --font-size-h1: 64px;
    --font-size-h2: 42px;
    --font-size-h3: 29px;
    --font-size-body: 21px;
    --font-size-caption: 17px;
    --secondary-text: var(--muted-text);
    --panel-border: var(--border);
    --font-weight-normal: 400;
    --font-weight-medium: 500;
    --font-weight-semibold: 600;
    --font-weight-bold: 700;
    --spacing-gutter-pct: 0.07;
    --spacing-top-pct: 0.15;
    --spacing-bottom-pct: 0.07;
    --spacing-title-y-pct: 0.055;
    --accent-1: #a16207;
    --accent-2: #c2410c;
    --accent-3: #b45309;
    --accent-4: #b91c1c;
    --accent-5: #92400e;
    --accent-6: #0369a1;
}
:root[data-theme="dark"] {
    --background: #0f172a;
    --panel: #1e293b;
    --primary-text: #f1f5f9;
    --muted-text: #94a3b8;
    --inverse-text: #0f172a;
    --border: #334155;
    --shadow-color: #000000;
    --icon-pad-bg: #1e293b;
    --art-glow: #7dd3fc;
    --art-glow-opacity: 0.18;
    --art-sheen: #ffffff;
    --art-sheen-opacity: 0.18;
    --art-shadow: #000000;
    --art-shadow-opacity: 0.28;
    --art-muted-line: #64748b;
    --art-panel-tint: #1e293b;
    --semantic-risk: #f87171;
    --semantic-warning: #fb923c;
    --semantic-uncertain: #fbbf24;
    --semantic-evidence: #60a5fa;
    --semantic-claim: #c084fc;
    --semantic-positive: #4ade80;
    --semantic-outcome: #22d3ee;
    --accent-1: #fbbf24;
    --accent-2: #fb923c;
    --accent-3: #f59e0b;
    --accent-4: #fca5a5;
    --accent-5: #d6a66f;
    --accent-6: #7dd3fc;
}
:root[data-theme="light"] {
    --background: #f8fafc;
    --panel: #ffffff;
    --primary-text: #0f172a;
    --muted-text: #64748b;
    --inverse-text: #ffffff;
    --border: #e2e8f0;
    --shadow-color: #000000;
    --icon-pad-bg: #1e293b;
    --art-glow: #0891b2;
    --art-glow-opacity: 0.10;
    --art-sheen: #ffffff;
    --art-sheen-opacity: 0.34;
    --art-shadow: #0f172a;
    --art-shadow-opacity: 0.14;
    --art-muted-line: #94a3b8;
    --art-panel-tint: #f1f5f9;
    --semantic-risk: #b91c1c;
    --semantic-warning: #c2410c;
    --semantic-uncertain: #a16207;
    --semantic-evidence: #1d4ed8;
    --semantic-claim: #6d28d9;
    --semantic-positive: #15803d;
    --semantic-outcome: #0e7490;
    --accent-1: #a16207;
    --accent-2: #c2410c;
    --accent-3: #b45309;
    --accent-4: #b91c1c;
    --accent-5: #92400e;
    --accent-6: #0369a1;
}</style>
  <rect x="0" y="0" width="1.92E+3" height="1.08E+3" fill="#252a34" stroke="none" id="programmatic_background"/>
  <line id="HEADER_DECOR" x1="960.0" x2="1080.0" y1="135.0" y2="135.0" stroke="var(--accent-1)" stroke-width="6" stroke-linecap="round"/>
  <defs>
    <pattern id="svg60265170-napkin-hatch" patternUnits="userSpaceOnUse" width="12" height="12">
      <path d="M -3 12 L 12 -3 M 0 15 L 15 0" fill="none" stroke="var(--primary-text)" stroke-width="1" stroke-opacity="0.05"/>
    </pattern>
    <filter id="svg60265170-shadow" x="-30%" y="-30%" width="160%" height="160%">
      <feDropShadow dx="0" dy="2" stdDeviation="3" flood-color="#000000" flood-opacity="0.08"/>
      <feDropShadow dx="0" dy="6" stdDeviation="10" flood-color="#000000" flood-opacity="0.12"/>
    </filter>
    <marker id="svg60265170-arrowhead" markerWidth="10" markerHeight="10" refX="9" refY="5" orient="auto">
      <path d="M 0 0 L 10 5 L 0 10 Z" fill="var(--accent-1)"/>
    </marker>
    <filter id="svg60265170-text-glow" x="-20%" y="-20%" width="140%" height="140%">
      <feDropShadow dx="0" dy="0" stdDeviation="2" flood-color="#000000" flood-opacity="0.4"/>
    </filter>
    <radialGradient id="svg60265170-universal-edge-vignette" cx="50%" cy="50%" r="72%">
      <stop offset="0%" stop-color="var(--background)" stop-opacity="0"/>
      <stop offset="72%" stop-color="var(--background)" stop-opacity="0.12"/>
      <stop offset="100%" stop-color="var(--primary-text)" stop-opacity="0.08"/>
    </radialGradient>
    <linearGradient id="svg60265170-universal-surface-sheen" x1="0%" y1="0%" x2="100%" y2="100%">
      <stop offset="0%" stop-color="var(--art-sheen)" stop-opacity="var(--art-sheen-opacity)"/>
      <stop offset="46%" stop-color="var(--art-sheen)" stop-opacity="0.035"/>
      <stop offset="100%" stop-color="var(--art-panel-tint)" stop-opacity="0.14"/>
    </linearGradient>
    <radialGradient id="svg60265170-universal-icon-aura" cx="50%" cy="42%" r="64%">
      <stop offset="0%" stop-color="var(--art-glow)" stop-opacity="var(--art-glow-opacity)"/>
      <stop offset="100%" stop-color="var(--background)" stop-opacity="0"/>
    </radialGradient>
    <marker id="svg60265170-PHX_SEQUENCE_DIRECTION_ARROW" markerWidth="18" markerHeight="18" refX="16" refY="9" orient="auto" markerUnits="userSpaceOnUse">
      <path d="M 0 0 L 18 9 L 0 18 Z" fill="var(--muted-text)" opacity="0.9"/>
    </marker>
  </defs>
  <rect width="100%" height="100%" fill="var(--background)" id="CANVAS_BG"/>
  <rect width="100%" height="100%" fill="url(#svg60265170-napkin-hatch)"/>
  <rect id="UNIVERSAL_EDGE_VIGNETTE" width="100%" height="100%" fill="url(#svg60265170-universal-edge-vignette)" opacity="0.62"/>
  <text id="TITLE" x="960.0" y="59" text-anchor="middle" font-size="63" font-weight="700" fill="#0f172a" style="font-size: 69px; font-family: 'Segoe UI Variable Display', 'Aptos Display', 'Inter', 'Segoe UI', Helvetica, Arial, sans-serif; font-weight: 800; font-kerning: normal; font-feature-settings: &quot;kern&quot; 1, &quot;liga&quot; 1; letter-spacing:-1.2px;" data-final-font-size="69">
    <tspan x="960.0" dy="70.47px">ENHYPEN's Post-Debut Artistic Evolution</tspan>
  </text>
  <rect id="TITLE_FRAME" x="134" y="59" width="1652" height="103" fill="none"/>
  <g id="DIAGRAM_SCALER" transform="translate(50.3, 29.0) scale(0.95)">
    <line x1="120" y1="570" x2="1800" y2="570" stroke="var(--muted-text)" stroke-width="2" opacity="0.3" stroke-linecap="round" marker-end="url(#svg60265170-PHX_SEQUENCE_DIRECTION_ARROW)" data-direction-cue="forward"/>
    <rect x="397.5" y="555" width="155.0" height="30" fill="var(--muted-text)" opacity="0.1"/>
    <g transform="translate(262.5, 570)">
      <rect id="ITEM_1_BG" x="-210" y="-165" width="420" height="392" rx="24" fill="var(--panel)" stroke="var(--accent-1)" stroke-width="2"/>
      <rect id="ITEM_1_NODE" x="-75" y="-75" width="150" height="150" rx="45" fill="var(--background)" stroke="var(--accent-1)" stroke-width="2" stroke-opacity="0.58" data-badge-layer="outline"/>
      <text id="ITEM_1_HEAD" x="0.0" y="95.0" text-anchor="middle" font-weight="bold" font-size="27" fill="var(--accent-1)" data-bg-id="ITEM_1_BG" fill-opacity="1.0" style="font-size: 31px; font-family: 'Segoe UI Variable Display', 'Aptos Display', 'Inter', 'Segoe UI', Helvetica, Arial, sans-serif; font-weight: 700; font-kerning: normal; font-feature-settings: &quot;kern&quot; 1, &quot;liga&quot; 1; letter-spacing:-0.4px;" data-final-font-size="31">
        <tspan x="0.0" dy="33.52px">Initial Debut</tspan>
      </text>
      <rect id="ITEM_1_HEAD_FRAME" x="-190" y="95" width="380" height="50" fill="none"/>
      <text id="ITEM_1_BODY" x="0.0" y="150.0" text-anchor="middle" font-size="19.5" fill="var(--primary-text)" data-bg-id="ITEM_1_BG" style="font-size: 23px; font-family: 'Segoe UI Variable Text', 'Aptos', 'Inter', 'Segoe UI', Helvetica, Arial, sans-serif; font-weight: 400; font-kerning: normal; font-feature-settings: &quot;kern&quot; 1, &quot;liga&quot; 1;" data-final-font-size="23">
        <tspan x="0.0" dy="36.53px">Group enters a glamorous</tspan>
        <tspan x="0.0" dy="26.45px">environment with</tspan>
        <tspan x="0.0" dy="26.45px">disappearing rules</tspan>
      </text>
      <rect id="ITEM_1_BODY_FRAME" x="-190" y="150" width="380" height="170" fill="none"/>
      <g id="ITEM_1_ICON" transform="translate(-45.0, -45.0)" data-icon-size="90" stroke-linecap="round" stroke-linejoin="round" data-badge-treatment="clean">
        <g transform="translate(-3.813559322033898,-3.813559322033898) scale(4.067796610169491)" vector-effect="non-scaling-stroke" stroke-width="2.79" stroke-linecap="round" stroke-linejoin="round" stroke-opacity="1.0">
          <path d="M15.295 19.562 16 22" vector-effect="non-scaling-stroke" fill="none" stroke="var(--primary-text)"/>
          <path d="m17 16 3.758 2.098" vector-effect="non-scaling-stroke" fill="none" stroke="var(--primary-text)"/>
          <path d="m19 12.5 3.026-.598" vector-effect="non-scaling-stroke" fill="none" stroke="var(--primary-text)"/>
          <path d="M7.61 6.3a3 3 0 0 0-3.92 1.3l-1.38 2.79a3 3 0 0 0 1.3 3.91l6.89 3.597a1 1 0 0 0 1.342-.447l3.106-6.211a1 1 0 0 0-.447-1.341z" vector-effect="non-scaling-stroke" fill="none" stroke="var(--primary-text)"/>
          <path d="M8 9V2" vector-effect="non-scaling-stroke" fill="none" stroke="var(--primary-text)"/>
        </g>
      </g>
    </g>
    <rect x="822.5" y="555" width="155.0" height="30" fill="var(--muted-text)" opacity="0.1"/>
    <g transform="translate(687.5, 570)">
      <rect id="ITEM_2_BG" x="-210" y="-165" width="420" height="392" rx="24" fill="var(--panel)" stroke="var(--accent-2)" stroke-width="2"/>
      <rect id="ITEM_2_NODE" x="-75" y="-75" width="150" height="150" rx="45" fill="var(--background)" stroke="var(--accent-2)" stroke-width="2" stroke-opacity="0.58" data-badge-layer="outline"/>
      <text id="ITEM_2_HEAD" x="0.0" y="95.0" text-anchor="middle" font-weight="bold" font-size="27" fill="var(--accent-2)" data-bg-id="ITEM_2_BG" fill-opacity="1.0" style="font-size: 31px; font-family: 'Segoe UI Variable Display', 'Aptos Display', 'Inter', 'Segoe UI', Helvetica, Arial, sans-serif; font-weight: 700; font-kerning: normal; font-feature-settings: &quot;kern&quot; 1, &quot;liga&quot; 1; letter-spacing:-0.4px;" data-final-font-size="31">
        <tspan x="0.0" dy="33.52px">Rapid Success</tspan>
      </text>
      <rect id="ITEM_2_HEAD_FRAME" x="-190" y="95" width="380" height="50" fill="none"/>
      <text id="ITEM_2_BODY" x="0.0" y="150.0" text-anchor="middle" font-size="19.5" fill="var(--primary-text)" data-bg-id="ITEM_2_BG" style="font-size: 23px; font-family: 'Segoe UI Variable Text', 'Aptos', 'Inter', 'Segoe UI', Helvetica, Arial, sans-serif; font-weight: 400; font-kerning: normal; font-feature-settings: &quot;kern&quot; 1, &quot;liga&quot; 1;" data-final-font-size="23">
        <tspan x="0.0" dy="36.53px">Commercial success creates</tspan>
        <tspan x="0.0" dy="26.45px">enormous expectations</tspan>
        <tspan x="0.0" dy="26.45px">within months</tspan>
      </text>
      <rect id="ITEM_2_BODY_FRAME" x="-190" y="150" width="380" height="170" fill="none"/>
      <g id="ITEM_2_ICON" transform="translate(-45.0, -45.0)" data-icon-size="90" stroke-linecap="round" stroke-linejoin="round" data-badge-treatment="clean">
        <g transform="translate(-3.813559322033898,-3.813559322033898) scale(0.1906779661016949)" vector-effect="non-scaling-stroke" fill="var(--primary-text)" fill-opacity="1.0" stroke="none">
          <path fill="var(--primary-text)" d="M98.398 21.146a17 17 0 0 0-4.636.521c-20.49 5.262-33.163 20.63-36.116 38.649c-2.952 18.019 2.168 38.346 12.676 58.193c20.695 39.086 63.262 77.08 117.852 85.85c-5.61-6.72-11.05-14.246-16.274-22.375c-39.008-12.57-70.021-42.344-85.67-71.899c-9.206-17.387-12.846-34.491-10.82-46.857C77.437 50.862 83.482 42.89 98.238 39.1c.065-.017.068-.034.092-.053c-.065-.143.105-.08 0 0a.7.7 0 0 0 .176.217c.527.493 1.689 2.24 2.207 5.14c1.036 5.804-.413 15.593-8.135 25.68l14.293 10.942c10.418-13.61 13.65-28.086 11.56-39.785c-1.044-5.85-3.396-11.165-7.628-15.124c-3.174-2.969-7.747-4.868-12.405-4.972zm315.204 0c-4.658.104-9.23 2.003-12.405 4.972c-4.232 3.96-6.584 9.274-7.629 15.124c-2.089 11.699 1.143 26.174 11.56 39.785l14.294-10.942c-7.722-10.087-9.171-19.876-8.135-25.68c.518-2.9 1.68-4.647 2.207-5.14a.7.7 0 0 0 .176-.217c-.105-.08.065-.143 0 0c.024.019.027.036.092.053c14.756 3.79 20.801 11.76 22.828 24.127c2.026 12.366-1.614 29.47-10.82 46.857c-15.649 29.555-46.662 59.33-85.67 71.899c-5.223 8.129-10.665 15.655-16.274 22.375c54.59-8.77 97.157-46.764 117.852-85.85c10.508-19.847 15.628-40.174 12.676-58.193c-2.953-18.02-15.626-33.387-36.116-38.649a17 17 0 0 0-4.636-.521m-276.166 7.713c2.146 36.533 16.76 83.07 36.537 120.824c10.707 20.442 22.876 38.334 34.761 50.685C220.62 212.72 232 218.858 240 218.858h32c8 0 19.38-6.138 31.266-18.49s24.054-30.243 34.761-50.685c19.777-37.755 34.39-84.29 36.537-120.824zm95.564 208v16h46v-16zm6.445 34c-2.458 25.967-12.796 57.873-24.437 76h81.984c-11.64-18.127-21.979-50.033-24.437-76zm-38.445 94v14h110v-14zm-32 32v94h174v-94zm23 23h128v48H192z" vector-effect="non-scaling-stroke" stroke="none"/>
        </g>
      </g>
    </g>
    <rect x="1247.5" y="555" width="155.0" height="30" fill="var(--muted-text)" opacity="0.1"/>
    <g transform="translate(1112.5, 570)">
      <rect id="ITEM_3_BG" x="-210" y="-165" width="420" height="392" rx="24" fill="var(--panel)" stroke="var(--accent-3)" stroke-width="2"/>
      <rect id="ITEM_3_NODE" x="-75" y="-75" width="150" height="150" rx="45" fill="var(--background)" stroke="var(--accent-3)" stroke-width="2" stroke-opacity="0.58" data-badge-layer="outline"/>
      <text id="ITEM_3_HEAD" x="0.0" y="95.0" text-anchor="middle" font-weight="bold" font-size="27" fill="var(--accent-3)" data-bg-id="ITEM_3_BG" fill-opacity="1.0" style="font-size: 31px; font-family: 'Segoe UI Variable Display', 'Aptos Display', 'Inter', 'Segoe UI', Helvetica, Arial, sans-serif; font-weight: 700; font-kerning: normal; font-feature-settings: &quot;kern&quot; 1, &quot;liga&quot; 1; letter-spacing:-0.4px;" data-final-font-size="31">
        <tspan x="0.0" dy="33.52px">Carnival Transition</tspan>
      </text>
      <rect id="ITEM_3_HEAD_FRAME" x="-190" y="95" width="380" height="50" fill="none"/>
      <text id="ITEM_3_BODY" x="0.0" y="150.0" text-anchor="middle" font-size="19.5" fill="var(--primary-text)" data-bg-id="ITEM_3_BG" style="font-size: 23px; font-family: 'Segoe UI Variable Text', 'Aptos', 'Inter', 'Segoe UI', Helvetica, Arial, sans-serif; font-weight: 400; font-kerning: normal; font-feature-settings: &quot;kern&quot; 1, &quot;liga&quot; 1;" data-final-font-size="23">
        <tspan x="0.0" dy="41.82px">Success transforms into a</tspan>
        <tspan x="0.0" dy="26.45px">disorienting and unstable world</tspan>
      </text>
      <rect id="ITEM_3_BODY_FRAME" x="-190" y="150" width="380" height="170" fill="none"/>
      <g id="ITEM_3_ICON" transform="translate(-45.0, -45.0)" data-icon-size="90" stroke-linecap="round" stroke-linejoin="round" data-badge-treatment="clean">
        <g transform="translate(-6.428571428571429,-8.035714285714288) scale(3.2142857142857144)">
          <path d="M27.81 9H22.7C22.45 9 22.24 9.17407 22.17 9.4198C21.98 10.0853 21.37 10.5768 20.66 10.5768C19.95 10.5768 19.34 10.0956 19.15 9.4198C19.08 9.17407 18.87 9 18.62 9H4.19C2.98 9 2 10.0034 2 11.2423V21.7577C2 22.9966 2.98 24 4.19 24H18.62C18.87 24 19.08 23.8259 19.15 23.5802C19.34 22.9147 19.95 22.4232 20.66 22.4232C21.37 22.4232 21.98 22.9044 22.17 23.5802C22.24 23.8259 22.45 24 22.7 24H27.81C29.02 24 30 22.9966 30 21.7577V11.2423C30 10.0034 29.02 9 27.81 9ZM20.66 20.6416C19.79 20.6416 19.0002 19.8988 19.0002 19.008C19.0002 18.1172 19.79 17.4061 20.66 17.4061C21.53 17.4061 22.2558 18.1172 22.2558 19.008C22.2558 19.8988 21.53 20.6416 20.66 20.6416ZM20.66 15.6041C19.79 15.6041 19.0117 14.8771 19.0117 13.9863C19.0117 13.0956 19.79 12.3686 20.66 12.3686C21.53 12.3686 22.2812 13.0956 22.2812 13.9863C22.2813 14.8771 21.53 15.6041 20.66 15.6041Z" fill="#F9C23C"/>
          <path d="M10.1161 14H5.88388C5.39515 14 5 13.5686 5 13.035C5 12.5014 5.39515 12.0699 5.88388 12.0699H10.1161C10.6049 12.0699 11 12.5014 11 13.035C11 13.5799 10.6049 14 10.1161 14Z" fill="#D3883E"/>
          <path d="M5.58387 19H15.4263C15.7391 19 16.0101 18.7768 15.9997 18.5C15.9997 18.2232 15.7391 18 15.4158 18H5.58387C5.26066 18 5 18.2232 5 18.5C5 18.7768 5.26066 19 5.58387 19Z" fill="#D3883E"/>
          <path d="M5.58387 21H15.4263C15.7391 21 16.0101 20.7679 15.9997 20.5C15.9997 20.2232 15.7391 20 15.4158 20H5.58387C5.26066 20 5 20.2232 5 20.5C5 20.7768 5.26066 21 5.58387 21Z" fill="#D3883E"/>
          <path d="M24.7386 17H27.2614C27.6705 17 28 17.3295 28 17.7386V20.2614C28 20.6705 27.6705 21 27.2614 21H24.7386C24.3295 21 24 20.6705 24 20.2614V17.7386C24 17.3295 24.3295 17 24.7386 17Z" fill="#D3883E"/>
        </g>
      </g>
    </g>
    <g transform="translate(1537.5, 570)">
      <rect id="ITEM_4_BG" x="-210" y="-165" width="420" height="392" rx="24" fill="var(--panel)" stroke="var(--accent-4)" stroke-width="2"/>
      <rect id="ITEM_4_NODE" x="-75" y="-75" width="150" height="150" rx="45" fill="var(--background)" stroke="var(--accent-1)" stroke-width="2" stroke-opacity="0.58" data-badge-layer="outline"/>
      <text id="ITEM_4_HEAD" x="0.0" y="95.0" text-anchor="middle" font-weight="bold" font-size="27" fill="var(--accent-1)" data-bg-id="ITEM_4_BG" fill-opacity="1.0" style="font-size: 31px; font-family: 'Segoe UI Variable Display', 'Aptos Display', 'Inter', 'Segoe UI', Helvetica, Arial, sans-serif; font-weight: 700; font-kerning: normal; font-feature-settings: &quot;kern&quot; 1, &quot;liga&quot; 1; letter-spacing:-0.4px;" data-final-font-size="31">
        <tspan x="0.0" dy="33.52px">Drunk-Dazed State</tspan>
      </text>
      <rect id="ITEM_4_HEAD_FRAME" x="-190" y="95" width="380" height="50" fill="none"/>
      <text id="ITEM_4_BODY" x="0.0" y="150.0" text-anchor="middle" font-size="19.5" fill="var(--primary-text)" data-bg-id="ITEM_4_BG" style="font-size: 23px; font-family: 'Segoe UI Variable Text', 'Aptos', 'Inter', 'Segoe UI', Helvetica, Arial, sans-serif; font-weight: 400; font-kerning: normal; font-feature-settings: &quot;kern&quot; 1, &quot;liga&quot; 1;" data-final-font-size="23">
        <tspan x="0.0" dy="41.82px">Uncertainty evolves into a state</tspan>
        <tspan x="0.0" dy="26.45px">of intoxication</tspan>
      </text>
      <rect id="ITEM_4_BODY_FRAME" x="-190" y="150" width="380" height="170" fill="none"/>
      <g id="ITEM_4_ICON" transform="translate(-45.0, -45.0)" data-icon-size="90" stroke-linecap="round" stroke-linejoin="round" data-badge-treatment="clean">
        <g transform="translate(-5.9734513274336365,-3.9823008849557597) scale(4.247787610619469)" vector-effect="non-scaling-stroke" stroke-width="2.79" stroke-linecap="round" stroke-linejoin="round" stroke-opacity="1.0">
          <path d="M10 5h4v-2a1 1 0 0 0 -1 -1h-2a1 1 0 0 0 -1 1v2z" vector-effect="non-scaling-stroke" fill="none" stroke="var(--primary-text)"/>
          <path d="M14 3.5c0 1.626 .507 3.212 1.45 4.537l.05 .07a8.093 8.093 0 0 1 1.5 4.694v6.199a2 2 0 0 1 -2 2h-6a2 2 0 0 1 -2 -2v-6.2c0 -1.682 .524 -3.322 1.5 -4.693l.05 -.07a7.823 7.823 0 0 0 1.45 -4.537" vector-effect="non-scaling-stroke" fill="none" stroke="var(--primary-text)"/>
          <path d="M7 14.803a2.4 2.4 0 0 0 1 -.803a2.4 2.4 0 0 1 2 -1a2.4 2.4 0 0 1 2 1a2.4 2.4 0 0 0 2 1a2.4 2.4 0 0 0 2 -1a2.4 2.4 0 0 1 1 -.805" vector-effect="non-scaling-stroke" fill="none" stroke="var(--primary-text)"/>
        </g>
      </g>
    </g>
    <line id="PHX_SEQUENCE_MIDROUTE_ARROW_1" x1="932.0" y1="570.0" x2="988.0" y2="570.0" stroke="var(--muted-text)" opacity="0.92" stroke-width="5" stroke-linecap="round" marker-end="url(#svg60265170-PHX_SEQUENCE_DIRECTION_ARROW)" data-direction-cue="forward"/>
  </g>
  <text id="SOURCE_NOTE" x="134.0" y="1058.0" fill="var(--muted-text)" opacity="0.88" style="font-family: var(--font-family); font-size: 20px;">Source: Introduction</text>
</svg>
