<?xml version='1.0' encoding='utf-8'?>
<svg xmlns="http://www.w3.org/2000/svg" width="1920" height="1080" viewBox="0 0 1920 1080" data-theme="light" data-semantic-intent="compare" data-relation-type="comparison" data-site-visual-identity="heritage-amber">
  <style>
        @font-face {
            font-family: 'Inter';
            src: url('assets/fonts/Inter-Regular.ttf') format('truetype');
            font-weight: 400;
            font-style: normal;
            font-display: swap;
        }
        @font-face {
            font-family: 'Inter';
            src: url('assets/fonts/Inter-Bold.ttf') format('truetype');
            font-weight: 600;
            font-style: normal;
            font-display: swap;
        }
        @font-face {
            font-family: 'Inter';
            src: url('assets/fonts/Inter-Bold.ttf') format('truetype');
            font-weight: 800;
            font-style: normal;
            font-display: swap;
        }
        
:root {
    --background: #f8fafc;
    --panel: #ffffff;
    --primary-text: #0f172a;
    --muted-text: #64748b;
    --inverse-text: #ffffff;
    --border: #e2e8f0;
    --shadow-color: #000000;
    --icon-pad-bg: #1e293b;
    --art-glow: #0891b2;
    --art-glow-opacity: 0.10;
    --art-sheen: #ffffff;
    --art-sheen-opacity: 0.34;
    --art-shadow: #0f172a;
    --art-shadow-opacity: 0.14;
    --art-muted-line: #94a3b8;
    --art-panel-tint: #f1f5f9;
    --semantic-risk: #b91c1c;
    --semantic-warning: #c2410c;
    --semantic-uncertain: #a16207;
    --semantic-evidence: #1d4ed8;
    --semantic-claim: #6d28d9;
    --semantic-positive: #15803d;
    --semantic-outcome: #0e7490;
    --font-family: 'Inter', 'Segoe UI', 'Kalam', Roboto, Helvetica, Arial, sans-serif;
    --radius-xl: 16px;
    --font-family-headline: 'Segoe UI Variable Display', 'Aptos Display', 'Inter', 'Segoe UI', Helvetica, Arial, sans-serif;
    --font-family-body: 'Segoe UI Variable Text', 'Aptos', 'Inter', 'Segoe UI', Helvetica, Arial, sans-serif;
    --font-heading: var(--font-family-headline);
    --font-body: var(--font-family-body);
    --font-size-h1: 64px;
    --font-size-h2: 42px;
    --font-size-h3: 29px;
    --font-size-body: 21px;
    --font-size-caption: 17px;
    --secondary-text: var(--muted-text);
    --panel-border: var(--border);
    --font-weight-normal: 400;
    --font-weight-medium: 500;
    --font-weight-semibold: 600;
    --font-weight-bold: 700;
    --spacing-gutter-pct: 0.07;
    --spacing-top-pct: 0.15;
    --spacing-bottom-pct: 0.07;
    --spacing-title-y-pct: 0.055;
    --accent-1: #a16207;
    --accent-2: #c2410c;
    --accent-3: #b45309;
    --accent-4: #b91c1c;
    --accent-5: #92400e;
    --accent-6: #0369a1;
}
:root[data-theme="dark"] {
    --background: #0f172a;
    --panel: #1e293b;
    --primary-text: #f1f5f9;
    --muted-text: #94a3b8;
    --inverse-text: #0f172a;
    --border: #334155;
    --shadow-color: #000000;
    --icon-pad-bg: #1e293b;
    --art-glow: #7dd3fc;
    --art-glow-opacity: 0.18;
    --art-sheen: #ffffff;
    --art-sheen-opacity: 0.18;
    --art-shadow: #000000;
    --art-shadow-opacity: 0.28;
    --art-muted-line: #64748b;
    --art-panel-tint: #1e293b;
    --semantic-risk: #f87171;
    --semantic-warning: #fb923c;
    --semantic-uncertain: #fbbf24;
    --semantic-evidence: #60a5fa;
    --semantic-claim: #c084fc;
    --semantic-positive: #4ade80;
    --semantic-outcome: #22d3ee;
    --accent-1: #fbbf24;
    --accent-2: #fb923c;
    --accent-3: #f59e0b;
    --accent-4: #fca5a5;
    --accent-5: #d6a66f;
    --accent-6: #7dd3fc;
}
:root[data-theme="light"] {
    --background: #f8fafc;
    --panel: #ffffff;
    --primary-text: #0f172a;
    --muted-text: #64748b;
    --inverse-text: #ffffff;
    --border: #e2e8f0;
    --shadow-color: #000000;
    --icon-pad-bg: #1e293b;
    --art-glow: #0891b2;
    --art-glow-opacity: 0.10;
    --art-sheen: #ffffff;
    --art-sheen-opacity: 0.34;
    --art-shadow: #0f172a;
    --art-shadow-opacity: 0.14;
    --art-muted-line: #94a3b8;
    --art-panel-tint: #f1f5f9;
    --semantic-risk: #b91c1c;
    --semantic-warning: #c2410c;
    --semantic-uncertain: #a16207;
    --semantic-evidence: #1d4ed8;
    --semantic-claim: #6d28d9;
    --semantic-positive: #15803d;
    --semantic-outcome: #0e7490;
    --accent-1: #a16207;
    --accent-2: #c2410c;
    --accent-3: #b45309;
    --accent-4: #b91c1c;
    --accent-5: #92400e;
    --accent-6: #0369a1;
}</style>
  <rect x="0" y="0" width="1.92E+3" height="1.08E+3" fill="#252a34" stroke="none" id="programmatic_background"/>
  <line id="HEADER_DECOR" x1="960.0" x2="1080.0" y1="135.0" y2="135.0" stroke="var(--accent-1)" stroke-width="6" stroke-linecap="round"/>
  <defs>
    <filter id="svg0e1c0df8-force-white" x="-20%" y="-20%" width="140%" height="140%">
      <feColorMatrix type="matrix" values="0 0 0 0 1                                            0 0 0 0 1                                            0 0 0 0 1                                            0 0 0 1 0"/>
    </filter>
    <pattern id="svg0e1c0df8-napkin-hatch" patternUnits="userSpaceOnUse" width="12" height="12">
      <path d="M -3 12 L 12 -3 M 0 15 L 15 0" fill="none" stroke="var(--primary-text)" stroke-width="1" stroke-opacity="0.05"/>
    </pattern>
    <radialGradient id="svg0e1c0df8-universal-edge-vignette" cx="50%" cy="50%" r="72%">
      <stop offset="0%" stop-color="var(--background)" stop-opacity="0"/>
      <stop offset="72%" stop-color="var(--background)" stop-opacity="0.12"/>
      <stop offset="100%" stop-color="var(--primary-text)" stop-opacity="0.08"/>
    </radialGradient>
    <linearGradient id="svg0e1c0df8-universal-surface-sheen" x1="0%" y1="0%" x2="100%" y2="100%">
      <stop offset="0%" stop-color="var(--art-sheen)" stop-opacity="var(--art-sheen-opacity)"/>
      <stop offset="46%" stop-color="var(--art-sheen)" stop-opacity="0.035"/>
      <stop offset="100%" stop-color="var(--art-panel-tint)" stop-opacity="0.14"/>
    </linearGradient>
    <radialGradient id="svg0e1c0df8-universal-icon-aura" cx="50%" cy="42%" r="64%">
      <stop offset="0%" stop-color="var(--art-glow)" stop-opacity="var(--art-glow-opacity)"/>
      <stop offset="100%" stop-color="var(--background)" stop-opacity="0"/>
    </radialGradient>
    <linearGradient id="svg0e1c0df8-comparison-card-depth" x1="0%" y1="0%" x2="0%" y2="100%">
      <stop offset="0%" stop-color="var(--art-sheen)" stop-opacity="0.30"/>
      <stop offset="55%" stop-color="var(--art-sheen)" stop-opacity="0.035"/>
      <stop offset="100%" stop-color="var(--art-shadow)" stop-opacity="0.10"/>
    </linearGradient>
    <filter id="svg0e1c0df8-text-glow" x="-20%" y="-20%" width="140%" height="140%">
      <feDropShadow dx="0" dy="0" stdDeviation="2" flood-color="#000000" flood-opacity="0.4"/>
    </filter>
    <filter id="svg0e1c0df8-shadow" x="-30%" y="-30%" width="160%" height="160%">
      <feDropShadow dx="0" dy="2" stdDeviation="3" flood-color="#000000" flood-opacity="0.08"/>
      <feDropShadow dx="0" dy="6" stdDeviation="10" flood-color="#000000" flood-opacity="0.12"/>
    </filter>
    <marker id="svg0e1c0df8-arrowhead" markerWidth="10" markerHeight="7" refX="9" refY="3.5" orient="auto" markerUnits="strokeWidth">
      <polygon points="0 0, 10 3.5, 0 7" fill="var(--muted-text)" opacity="0.6"/>
    </marker>
  </defs>
  <rect width="100%" height="100%" fill="var(--background)" id="CANVAS_BG"/>
  <rect width="100%" height="100%" fill="url(#svg0e1c0df8-napkin-hatch)"/>
  <rect id="UNIVERSAL_EDGE_VIGNETTE" width="100%" height="100%" fill="url(#svg0e1c0df8-universal-edge-vignette)" opacity="0.62"/>
  <text id="TITLE" x="960.0" y="59" font-size="63" font-weight="700" fill="#0f172a" style="font-size: 69px; font-family: 'Segoe UI Variable Display', 'Aptos Display', 'Inter', 'Segoe UI', Helvetica, Arial, sans-serif; font-weight: 800; font-kerning: normal; font-feature-settings: &quot;kern&quot; 1, &quot;liga&quot; 1; letter-spacing:-1.2px;" text-anchor="middle" data-final-font-size="69">
    <tspan x="960.0" dy="70.47px">Vampire Mythology: Dark vs. Orange Blood</tspan>
  </text>
  <rect id="TITLE_FRAME" x="134" y="59" width="1652" height="103" fill="none"/>
  <g transform="translate(255.0, 630.0)">
    <rect id="CARD_1_BG" x="-225" y="-330" width="450" height="660" rx="18" fill="var(--semantic-claim)" stroke="var(--accent-1)" stroke-width="2" fill-opacity="1.0"/>
    <circle cy="-180" r="50" fill="var(--background)" stroke="var(--accent-1)" stroke-width="2" id="ITEM_1_BADGE"/>
    <rect id="ITEM_1_TEXT_BG" x="-213.0" y="-106.0" width="426.0" height="350.8" rx="22" fill="var(--panel)" fill-opacity="0.94" stroke="var(--primary-text)" stroke-opacity="0.12" stroke-width="1.5"/>
    <rect id="COMPARISON_COLUMNS_ART_PANEL_SHEEN_1" x="-213.0" y="-106.0" width="426.0" height="350.8" rx="16" fill="var(--semantic-claim)" opacity="0.82" fill-opacity="1.0"/>
    <text id="ITEM_1_HEAD" data-bg-id="ITEM_1_TEXT_BG" text-anchor="middle" font-weight="bold" font-size="36" fill="var(--primary-text)" x="0.0" y="-90.0" fill-opacity="1.0" style="font-size: 31px; font-family: 'Segoe UI Variable Display', 'Aptos Display', 'Inter', 'Segoe UI', Helvetica, Arial, sans-serif; font-weight: 700; font-kerning: normal; font-feature-settings: &quot;kern&quot; 1, &quot;liga&quot; 1; letter-spacing:-0.4px;" data-final-font-size="31">
      <tspan x="0.0" dy="34.40px">Dark Blood Tone</tspan>
    </text>
    <rect id="ITEM_1_HEAD_FRAME" x="-195" y="-90" width="390" height="51.75" fill="none"/>
    <text id="ITEM_1_BODY" data-bg-id="ITEM_1_TEXT_BG" text-anchor="middle" font-size="21" x="0.0" y="-30.0" fill="var(--primary-text)" font-weight="700" opacity="1" style="font-size: 23px; font-family: 'Segoe UI Variable Text', 'Aptos', 'Inter', 'Segoe UI', Helvetica, Arial, sans-serif; font-weight: 400; font-kerning: normal; font-feature-settings: &quot;kern&quot; 1, &quot;liga&quot; 1;" data-max-lines="20" data-final-font-size="23">
      <tspan x="0.0" dy="59.58px">Gothic and fatalistic atmosphere</tspan>
      <tspan x="0.0" dy="26.45px">burdened by memory</tspan>
    </text>
    <rect id="ITEM_1_BODY_FRAME" x="-190" y="-30" width="380" height="258.8" fill="none"/>
    <circle id="ITEM_1_PAD" cx="0.0" cy="-180.0" r="58" fill="var(--icon-pad-bg)" stroke="var(--semantic-claim)" opacity="1" fill-opacity="0.9" stroke-width="2" stroke-opacity="0.72" data-badge-layer="pad"/>
    <circle cx="0.0" cy="-180.0" r="46.4" fill="none" stroke="var(--accent-1)" stroke-width="3" stroke-dasharray="6 4" display="none" data-suppressed-decoration="redundant-badge-ring"/>
    <g id="ITEM_1_ICON" transform="translate(-45.0, -225.0)" data-icon-size="90" stroke-linecap="round" stroke-linejoin="round" data-badge-treatment="clean">
      <g transform="translate(-3.256000000000002,-1.7479999999999993) scale(0.1885)" vector-effect="non-scaling-stroke" fill="#f1f5f9" fill-opacity="1.0" stroke="none">
        <path fill="#f1f5f9" d="M18 18v229.88c22.044 9.644 49.156-17.056 37.773-38.415c-9.77-18.333-28.462-64.016 2.426-62.99c28.694.953-6.267 51.97 28.515 57.074c34.492 3.933 27.964-35.193 22.09-56.23c-.83-24.395 41.38-26.67 43.338-2.185c8.49 38.33 1.755 77.958-10.797 114.553c-6.183 26.524 23.463 53.067 48.754 40.68c21.484-8.98 27.2-37.24 15.63-56.155c-9.393-21.09-14.358-46.482-7.056-68.848c15.266-17.564 34.26-2.558 31.67 19.4c-2.603 22.057 34.583 31.325 47.707 12.366c12.132-13.536-3.528-44.482 25.866-38.55c24.315 8.45 20.396 42.19 23.975 63.074c1.875 57.63-4.794 115.585-17.48 171.766c-6.737 21.168-15.6 49.026 4.77 65.818c20.44 19.52 57 2.728 57.87-24.834c.22-41.152-14.95-80.59-16.593-121.685c-1.99-51.07-6.23-102.407-1.945-153.452c-1.35-22.65 26.44-52.9 47.29-33.247c14.973 22.996-3.973 48.37-2.218 71.568c2.93 38.73 64.42 11.456 42.328-19.217c-15.696-21.732 21.673-62.3 29.37-24.413c9.04 28.41 11.366 62.216-2.663 88.127c-10.492 19.376-17.404 46.694 5.806 56.666c7.55 3.914 15.26 3.6 19.574-.25V18zm58.988 120.832c21.007 14.74 2.246 37.2 10.23 48.88c1.113 2.357 9.44 7.467 7.966 7.622c-27.937-2.57-17.47-21.197-16.758-39.598c-1.642-9.125-3.514-16.687-1.438-16.904m83.46 9.176c15.11 37.11 14.654 71.48.814 107.937c-7.613 16.268 12.677 35.28 19.03 39.336c-27.713-3.024-36.51-30.838-25.93-52.378c9.564-30.688 12.476-54.2 6.085-94.894zm79.997 28.32c-.87 14.396 8.95 22.896 30.348 29.96c-17.49 11.152-43.003-10.59-30.348-29.96m167.602 13.215c1.624-.008 3.56 2.88 5.043 10.062c3.194 15.478 16.705 9.406 26.406.688c.426 17.666-31.39 25.417-34.154 3.49c-1.372-8.03.33-14.228 2.705-14.24m78.185 14.55a.4.4 0 0 1 .147.013c.786 6.186 1.374 13.183 1.243 19.416c3.29 24.09-15.953 44.724-7.834 67.03c4.092 11.247 3.7 18.713-7.085 10.108c-13.438-12.492-2.112-35.942 4.592-52.05c6.498-9.613 5.937-44.258 8.935-44.518zm-150.543 59.9c4.252 13.3 1.957 33.317 3.156 48.777c-1.066 44.92-10.64 87.364-14.39 131.2c-.59 6.89 13.26 28.558-1.274 20.708c-17.077-9.554-10.357-31.603-7.137-46.46c13.697-50.267 17.806-102.36 19.644-154.226z" vector-effect="non-scaling-stroke" stroke="none"/>
      </g>
    </g>
  </g>
  <g transform="translate(726.0, 630.0)">
    <rect id="CARD_2_BG" x="-225" y="-330" width="450" height="660" rx="18" fill="var(--semantic-claim)" stroke="var(--accent-2)" stroke-width="2" fill-opacity="1.0"/>
    <circle cy="-180" r="50" fill="var(--background)" stroke="var(--accent-2)" stroke-width="2" id="ITEM_2_BADGE"/>
    <rect id="ITEM_2_TEXT_BG" x="-213.0" y="-106.0" width="426.0" height="350.8" rx="22" fill="var(--panel)" fill-opacity="0.94" stroke="var(--primary-text)" stroke-opacity="0.12" stroke-width="1.5"/>
    <rect id="COMPARISON_COLUMNS_ART_PANEL_SHEEN_2" x="-213.0" y="-106.0" width="426.0" height="350.8" rx="16" fill="var(--semantic-claim)" opacity="0.82" fill-opacity="1.0"/>
    <text id="ITEM_2_HEAD" data-bg-id="ITEM_2_TEXT_BG" text-anchor="middle" font-weight="bold" font-size="36" fill="var(--primary-text)" x="0.0" y="-90.0" fill-opacity="1.0" style="font-size: 31px; font-family: 'Segoe UI Variable Display', 'Aptos Display', 'Inter', 'Segoe UI', Helvetica, Arial, sans-serif; font-weight: 700; font-kerning: normal; font-feature-settings: &quot;kern&quot; 1, &quot;liga&quot; 1; letter-spacing:-0.4px;" data-final-font-size="31">
      <tspan x="0.0" dy="34.40px">Dark Blood Theme</tspan>
    </text>
    <rect id="ITEM_2_HEAD_FRAME" x="-195" y="-90" width="390" height="51.75" fill="none"/>
    <text id="ITEM_2_BODY" data-bg-id="ITEM_2_TEXT_BG" text-anchor="middle" font-size="21" x="0.0" y="-30.0" fill="var(--primary-text)" font-weight="700" opacity="1" style="font-size: 23px; font-family: 'Segoe UI Variable Text', 'Aptos', 'Inter', 'Segoe UI', Helvetica, Arial, sans-serif; font-weight: 400; font-kerning: normal; font-feature-settings: &quot;kern&quot; 1, &quot;liga&quot; 1;" data-max-lines="20" data-final-font-size="23">
      <tspan x="0.0" dy="59.58px">Power and pride lead to punishment</tspan>
      <tspan x="0.0" dy="26.45px">and loneliness</tspan>
    </text>
    <rect id="ITEM_2_BODY_FRAME" x="-190" y="-30" width="380" height="258.8" fill="none"/>
    <circle id="ITEM_2_PAD" cx="0.0" cy="-180.0" r="58" fill="var(--icon-pad-bg)" stroke="var(--semantic-claim)" opacity="1" fill-opacity="0.9" stroke-width="2" stroke-opacity="0.72" data-badge-layer="pad"/>
    <circle cx="0.0" cy="-180.0" r="46.4" fill="none" stroke="var(--accent-1)" stroke-width="3" stroke-dasharray="6 4" display="none" data-suppressed-decoration="redundant-badge-ring"/>
    <g id="ITEM_2_ICON" transform="translate(-45.0, -225.0)" data-icon-size="90" stroke-linecap="round" stroke-linejoin="round" data-badge-treatment="clean">
      <g transform="translate(-3.256000000000002,-1.7479999999999993) scale(0.1885)" vector-effect="non-scaling-stroke" fill="#f1f5f9" fill-opacity="1.0" stroke="none">
        <path fill="#f1f5f9" d="M18 18v229.88c22.044 9.644 49.156-17.056 37.773-38.415c-9.77-18.333-28.462-64.016 2.426-62.99c28.694.953-6.267 51.97 28.515 57.074c34.492 3.933 27.964-35.193 22.09-56.23c-.83-24.395 41.38-26.67 43.338-2.185c8.49 38.33 1.755 77.958-10.797 114.553c-6.183 26.524 23.463 53.067 48.754 40.68c21.484-8.98 27.2-37.24 15.63-56.155c-9.393-21.09-14.358-46.482-7.056-68.848c15.266-17.564 34.26-2.558 31.67 19.4c-2.603 22.057 34.583 31.325 47.707 12.366c12.132-13.536-3.528-44.482 25.866-38.55c24.315 8.45 20.396 42.19 23.975 63.074c1.875 57.63-4.794 115.585-17.48 171.766c-6.737 21.168-15.6 49.026 4.77 65.818c20.44 19.52 57 2.728 57.87-24.834c.22-41.152-14.95-80.59-16.593-121.685c-1.99-51.07-6.23-102.407-1.945-153.452c-1.35-22.65 26.44-52.9 47.29-33.247c14.973 22.996-3.973 48.37-2.218 71.568c2.93 38.73 64.42 11.456 42.328-19.217c-15.696-21.732 21.673-62.3 29.37-24.413c9.04 28.41 11.366 62.216-2.663 88.127c-10.492 19.376-17.404 46.694 5.806 56.666c7.55 3.914 15.26 3.6 19.574-.25V18zm58.988 120.832c21.007 14.74 2.246 37.2 10.23 48.88c1.113 2.357 9.44 7.467 7.966 7.622c-27.937-2.57-17.47-21.197-16.758-39.598c-1.642-9.125-3.514-16.687-1.438-16.904m83.46 9.176c15.11 37.11 14.654 71.48.814 107.937c-7.613 16.268 12.677 35.28 19.03 39.336c-27.713-3.024-36.51-30.838-25.93-52.378c9.564-30.688 12.476-54.2 6.085-94.894zm79.997 28.32c-.87 14.396 8.95 22.896 30.348 29.96c-17.49 11.152-43.003-10.59-30.348-29.96m167.602 13.215c1.624-.008 3.56 2.88 5.043 10.062c3.194 15.478 16.705 9.406 26.406.688c.426 17.666-31.39 25.417-34.154 3.49c-1.372-8.03.33-14.228 2.705-14.24m78.185 14.55a.4.4 0 0 1 .147.013c.786 6.186 1.374 13.183 1.243 19.416c3.29 24.09-15.953 44.724-7.834 67.03c4.092 11.247 3.7 18.713-7.085 10.108c-13.438-12.492-2.112-35.942 4.592-52.05c6.498-9.613 5.937-44.258 8.935-44.518zm-150.543 59.9c4.252 13.3 1.957 33.317 3.156 48.777c-1.066 44.92-10.64 87.364-14.39 131.2c-.59 6.89 13.26 28.558-1.274 20.708c-17.077-9.554-10.357-31.603-7.137-46.46c13.697-50.267 17.806-102.36 19.644-154.226z" vector-effect="non-scaling-stroke" stroke="none"/>
      </g>
    </g>
  </g>
  <g transform="translate(1194.0, 630.0)">
    <rect id="CARD_3_BG" x="-225" y="-330" width="450" height="660" rx="18" fill="var(--semantic-claim)" stroke="var(--accent-3)" stroke-width="2" fill-opacity="1.0"/>
    <circle cy="-180" r="50" fill="var(--background)" stroke="var(--accent-3)" stroke-width="2" id="ITEM_3_BADGE"/>
    <rect id="ITEM_3_TEXT_BG" x="-213.0" y="-106.0" width="426.0" height="350.8" rx="22" fill="var(--panel)" fill-opacity="0.94" stroke="var(--primary-text)" stroke-opacity="0.12" stroke-width="1.5"/>
    <rect id="COMPARISON_COLUMNS_ART_PANEL_SHEEN_3" x="-213.0" y="-106.0" width="426.0" height="350.8" rx="16" fill="var(--semantic-claim)" opacity="0.82" fill-opacity="1.0"/>
    <text id="ITEM_3_HEAD" data-bg-id="ITEM_3_TEXT_BG" text-anchor="middle" font-weight="bold" font-size="36" fill="var(--primary-text)" x="0.0" y="-90.0" fill-opacity="1.0" style="font-size: 31px; font-family: 'Segoe UI Variable Display', 'Aptos Display', 'Inter', 'Segoe UI', Helvetica, Arial, sans-serif; font-weight: 700; font-kerning: normal; font-feature-settings: &quot;kern&quot; 1, &quot;liga&quot; 1; letter-spacing:-0.4px;" data-final-font-size="31">
      <tspan x="0.0" dy="34.40px">Orange Blood Tone</tspan>
    </text>
    <rect id="ITEM_3_HEAD_FRAME" x="-195" y="-90" width="390" height="51.75" fill="none"/>
    <text id="ITEM_3_BODY" data-bg-id="ITEM_3_TEXT_BG" text-anchor="middle" font-size="21" x="0.0" y="-30.0" fill="var(--primary-text)" font-weight="700" opacity="1" style="font-size: 23px; font-family: 'Segoe UI Variable Text', 'Aptos', 'Inter', 'Segoe UI', Helvetica, Arial, sans-serif; font-weight: 400; font-kerning: normal; font-feature-settings: &quot;kern&quot; 1, &quot;liga&quot; 1;" data-max-lines="20" data-final-font-size="23">
      <tspan x="0.0" dy="59.58px">Warm and daylight atmosphere</tspan>
      <tspan x="0.0" dy="26.45px">embracing impermanence</tspan>
    </text>
    <rect id="ITEM_3_BODY_FRAME" x="-190" y="-30" width="380" height="258.8" fill="none"/>
    <circle id="ITEM_3_PAD" cx="0.0" cy="-180.0" r="58" fill="var(--icon-pad-bg)" stroke="var(--semantic-claim)" opacity="1" fill-opacity="0.9" stroke-width="2" stroke-opacity="0.72" data-badge-layer="pad"/>
    <circle cx="0.0" cy="-180.0" r="46.4" fill="none" stroke="var(--accent-2)" stroke-width="3" stroke-dasharray="6 4" display="none" data-suppressed-decoration="redundant-badge-ring"/>
    <g id="ITEM_3_ICON" transform="translate(-45.0, -225.0)" data-icon-size="90" stroke-linecap="round" stroke-linejoin="round" data-badge-treatment="clean">
      <g transform="translate(-3.9788429752066143,-2.483305785123969) scale(0.18694214876033058)" vector-effect="non-scaling-stroke" fill="#f1f5f9" fill-opacity="1.0" stroke="none">
        <path fill="#f1f5f9" d="M267.375 14.688c-17.09 6.94-30.576 17.288-38.75 29.593l-14.813-27.593c-9.017 49.344-12.52 95.085 32 109.563c-10.734 36.94-17.187 73.9-20.687 110.813l-20.563-38.344c-2.848-14.713-9.618-30.698-17.343-47l-17.376 74.124c-7.214-22.468-16.496-44.677-28.47-66.47c24.46-43.217 16.134-70.568-31.093-79.28c-.515 3.04-.56 9.344-.56 9.344l-19.876-8.75L87.5 100.53l-9.344-4.655c-5.433 42.254-.12 74.946 46.625 72.094a342 342 0 0 1 10.314 20.28L29.22 156.312c31.263 45.247 64.173 82.76 112.53 47.094c10.985 26.656 18.485 53.944 23.75 81.72l-64.78-40.188c12.872 36.068 28.203 67.286 66.936 52.437c1.237 7.446 2.306 14.926 3.28 22.438h18.876c-2.757-21.95-6.533-43.82-11.906-65.5c8.208-4.095 14.35-8.853 18.75-14.188c3.693 11.197 11.61 19.643 26.438 23.594c-1.097 18.71-1.506 37.414-1.438 56.092h18.688c-.014-4.07-.003-8.12.03-12.187c41.888-6.813 39.48-42.478 32.407-81.188l-31.967 59.625c.765-23.7 2.492-47.326 5.593-70.906c52.515 5.043 61.144-38.783 65.125-87.78l-61.81 65.843c3.47-20.563 8.06-41.09 14-61.564c37.544 4.596 76.884-35.765 75.28-70l-12.438 7.72c-1.053-11.96-6.674-25.51-17.125-40.69c-7.535 5.354-14.003 12.573-19.843 20.44L285.5 31.03l-11.688 14.595c-.32-10.47-2.17-20.77-6.437-30.938zm182.22 99.25c-4.994.008-10.98.86-18.25 2.906c-13.336 3.754-27.52 12.25-22.376 37.625c-24.488 13.127-45.408 31.122-62.25 53.155h-.19c.03.045.067.08.095.125c-.8 1.05-1.593 2.09-2.375 3.156l23.063-76.344c-45.938 31.743-83.94 65.165-45.438 114.75c-9.69 21.296-16.536 44.94-20.313 70.5h38.032c24.53-7.376 29.6-36.436 32.187-68.25l-48.155 51.282c6.766-30.55 18.424-57.235 34.406-79.47c36.727 42.145 77.18 14.898 118.033-19.81l-104.594 3.28c13.094-14.284 28.35-26.198 45.56-35.5c11.388 14.74 28.402 14.172 40.595 7.812c25.338-13.216 17.442-27.84 38.28-45.906c-20.892 5.264-19.352-19.358-46.31-19.313zM152.936 338.5l26.032 154.594h143.593L348.969 338.5z" vector-effect="non-scaling-stroke" stroke="none"/>
      </g>
    </g>
  </g>
  <g transform="translate(1665.0, 630.0)">
    <rect id="CARD_4_BG" x="-225" y="-330" width="450" height="660" rx="18" fill="var(--semantic-claim)" stroke="var(--accent-4)" stroke-width="2" fill-opacity="1.0"/>
    <circle cy="-180" r="50" fill="var(--background)" stroke="var(--accent-4)" stroke-width="2" id="ITEM_4_BADGE"/>
    <rect id="ITEM_4_TEXT_BG" x="-213.0" y="-106.0" width="426.0" height="350.8" rx="22" fill="var(--panel)" fill-opacity="0.94" stroke="var(--primary-text)" stroke-opacity="0.12" stroke-width="1.5"/>
    <rect id="COMPARISON_COLUMNS_ART_PANEL_SHEEN_4" x="-213.0" y="-106.0" width="426.0" height="350.8" rx="16" fill="var(--semantic-claim)" opacity="0.82" fill-opacity="1.0"/>
    <text id="ITEM_4_HEAD" data-bg-id="ITEM_4_TEXT_BG" text-anchor="middle" font-weight="bold" font-size="36" fill="var(--primary-text)" x="0.0" y="-90.0" fill-opacity="1.0" style="font-size: 31px; font-family: 'Segoe UI Variable Display', 'Aptos Display', 'Inter', 'Segoe UI', Helvetica, Arial, sans-serif; font-weight: 700; font-kerning: normal; font-feature-settings: &quot;kern&quot; 1, &quot;liga&quot; 1; letter-spacing:-0.4px;" data-final-font-size="31">
      <tspan x="0.0" dy="34.40px">Orange Blood Theme</tspan>
    </text>
    <rect id="ITEM_4_HEAD_FRAME" x="-195" y="-90" width="390" height="51.75" fill="none"/>
    <text id="ITEM_4_BODY" data-bg-id="ITEM_4_TEXT_BG" text-anchor="middle" font-size="21" x="0.0" y="-30.0" fill="var(--primary-text)" font-weight="700" opacity="1" style="font-size: 23px; font-family: 'Segoe UI Variable Text', 'Aptos', 'Inter', 'Segoe UI', Helvetica, Arial, sans-serif; font-weight: 400; font-kerning: normal; font-feature-settings: &quot;kern&quot; 1, &quot;liga&quot; 1;" data-max-lines="20" data-final-font-size="23">
      <tspan x="0.0" dy="59.58px">Urgent commitment to love despite</tspan>
      <tspan x="0.0" dy="26.45px">monstrous nature</tspan>
    </text>
    <rect id="ITEM_4_BODY_FRAME" x="-190" y="-30" width="380" height="258.8" fill="none"/>
    <circle id="ITEM_4_PAD" cx="0.0" cy="-180.0" r="58" fill="var(--icon-pad-bg)" stroke="var(--semantic-claim)" opacity="1" fill-opacity="0.9" stroke-width="2" stroke-opacity="0.72" data-badge-layer="pad"/>
    <circle cx="0.0" cy="-180.0" r="46.4" fill="none" stroke="var(--accent-3)" stroke-width="3" stroke-dasharray="6 4" display="none" data-suppressed-decoration="redundant-badge-ring"/>
    <g id="ITEM_4_ICON" transform="translate(-45.0, -225.0)" data-icon-size="90" stroke-linecap="round" stroke-linejoin="round" data-badge-treatment="clean">
      <g transform="translate(-4.920000000000002,-3.360000000000002) scale(0.39)" vector-effect="non-scaling-stroke" stroke-width="2.79" stroke-linecap="round" stroke-linejoin="round" stroke-opacity="1.0">
        <circle cx="128" cy="152" r="80" fill="none" stroke="#f1f5f9" vector-effect="non-scaling-stroke"/>
        <path d="M128,72h0a56,56,0,0,1,56-56h8a56,56,0,0,1-56,56Z" fill="none" stroke="#f1f5f9" vector-effect="non-scaling-stroke"/>
        <path d="M128,72h0A56,56,0,0,0,72,16H64" fill="none" stroke="#f1f5f9" vector-effect="non-scaling-stroke"/>
        <path d="M176,160a49.52,49.52,0,0,1-40,40" fill="none" stroke="#f1f5f9" vector-effect="non-scaling-stroke"/>
      </g>
    </g>
  </g>
  <text id="SOURCE_NOTE" x="134.0" y="1058.0" fill="var(--muted-text)" opacity="0.88" style="font-family: var(--font-family); font-size: 20px;">Source: Introduction</text>
</svg>
