<?xml version='1.0' encoding='utf-8'?>
<svg xmlns="http://www.w3.org/2000/svg" width="1920" height="1080" viewBox="0 0 1920 1080" data-theme="light" data-semantic-intent="compare" data-relation-type="comparison" data-site-visual-identity="heritage-amber">
  <style>
        @font-face {
            font-family: 'Inter';
            src: url('assets/fonts/Inter-Regular.ttf') format('truetype');
            font-weight: 400;
            font-style: normal;
            font-display: swap;
        }
        @font-face {
            font-family: 'Inter';
            src: url('assets/fonts/Inter-Bold.ttf') format('truetype');
            font-weight: 600;
            font-style: normal;
            font-display: swap;
        }
        @font-face {
            font-family: 'Inter';
            src: url('assets/fonts/Inter-Bold.ttf') format('truetype');
            font-weight: 800;
            font-style: normal;
            font-display: swap;
        }
        
:root {
    --background: #f8fafc;
    --panel: #ffffff;
    --primary-text: #0f172a;
    --muted-text: #64748b;
    --inverse-text: #ffffff;
    --border: #e2e8f0;
    --shadow-color: #000000;
    --icon-pad-bg: #1e293b;
    --art-glow: #0891b2;
    --art-glow-opacity: 0.10;
    --art-sheen: #ffffff;
    --art-sheen-opacity: 0.34;
    --art-shadow: #0f172a;
    --art-shadow-opacity: 0.14;
    --art-muted-line: #94a3b8;
    --art-panel-tint: #f1f5f9;
    --semantic-risk: #b91c1c;
    --semantic-warning: #c2410c;
    --semantic-uncertain: #a16207;
    --semantic-evidence: #1d4ed8;
    --semantic-claim: #6d28d9;
    --semantic-positive: #15803d;
    --semantic-outcome: #0e7490;
    --font-family: 'Inter', 'Segoe UI', 'Kalam', Roboto, Helvetica, Arial, sans-serif;
    --radius-xl: 16px;
    --font-family-headline: 'Segoe UI Variable Display', 'Aptos Display', 'Inter', 'Segoe UI', Helvetica, Arial, sans-serif;
    --font-family-body: 'Segoe UI Variable Text', 'Aptos', 'Inter', 'Segoe UI', Helvetica, Arial, sans-serif;
    --font-heading: var(--font-family-headline);
    --font-body: var(--font-family-body);
    --font-size-h1: 64px;
    --font-size-h2: 42px;
    --font-size-h3: 29px;
    --font-size-body: 21px;
    --font-size-caption: 17px;
    --secondary-text: var(--muted-text);
    --panel-border: var(--border);
    --font-weight-normal: 400;
    --font-weight-medium: 500;
    --font-weight-semibold: 600;
    --font-weight-bold: 700;
    --spacing-gutter-pct: 0.07;
    --spacing-top-pct: 0.15;
    --spacing-bottom-pct: 0.07;
    --spacing-title-y-pct: 0.055;
    --accent-1: #a16207;
    --accent-2: #c2410c;
    --accent-3: #b45309;
    --accent-4: #b91c1c;
    --accent-5: #92400e;
    --accent-6: #0369a1;
}
:root[data-theme="dark"] {
    --background: #0f172a;
    --panel: #1e293b;
    --primary-text: #f1f5f9;
    --muted-text: #94a3b8;
    --inverse-text: #0f172a;
    --border: #334155;
    --shadow-color: #000000;
    --icon-pad-bg: #1e293b;
    --art-glow: #7dd3fc;
    --art-glow-opacity: 0.18;
    --art-sheen: #ffffff;
    --art-sheen-opacity: 0.18;
    --art-shadow: #000000;
    --art-shadow-opacity: 0.28;
    --art-muted-line: #64748b;
    --art-panel-tint: #1e293b;
    --semantic-risk: #f87171;
    --semantic-warning: #fb923c;
    --semantic-uncertain: #fbbf24;
    --semantic-evidence: #60a5fa;
    --semantic-claim: #c084fc;
    --semantic-positive: #4ade80;
    --semantic-outcome: #22d3ee;
    --accent-1: #fbbf24;
    --accent-2: #fb923c;
    --accent-3: #f59e0b;
    --accent-4: #fca5a5;
    --accent-5: #d6a66f;
    --accent-6: #7dd3fc;
}
:root[data-theme="light"] {
    --background: #f8fafc;
    --panel: #ffffff;
    --primary-text: #0f172a;
    --muted-text: #64748b;
    --inverse-text: #ffffff;
    --border: #e2e8f0;
    --shadow-color: #000000;
    --icon-pad-bg: #1e293b;
    --art-glow: #0891b2;
    --art-glow-opacity: 0.10;
    --art-sheen: #ffffff;
    --art-sheen-opacity: 0.34;
    --art-shadow: #0f172a;
    --art-shadow-opacity: 0.14;
    --art-muted-line: #94a3b8;
    --art-panel-tint: #f1f5f9;
    --semantic-risk: #b91c1c;
    --semantic-warning: #c2410c;
    --semantic-uncertain: #a16207;
    --semantic-evidence: #1d4ed8;
    --semantic-claim: #6d28d9;
    --semantic-positive: #15803d;
    --semantic-outcome: #0e7490;
    --accent-1: #a16207;
    --accent-2: #c2410c;
    --accent-3: #b45309;
    --accent-4: #b91c1c;
    --accent-5: #92400e;
    --accent-6: #0369a1;
}</style>
  <rect x="0" y="0" width="1.92E+3" height="1.08E+3" fill="#252a34" stroke="none" id="programmatic_background"/>
  <line id="HEADER_DECOR" x1="960.0" x2="1080.0" y1="135.0" y2="135.0" stroke="var(--accent-1)" stroke-width="6" stroke-linecap="round"/>
  <defs>
    <pattern id="svgda56d7b3-napkin-hatch" patternUnits="userSpaceOnUse" width="12" height="12">
      <path d="M -3 12 L 12 -3 M 0 15 L 15 0" fill="none" stroke="var(--primary-text)" stroke-width="1" stroke-opacity="0.05"/>
    </pattern>
    <filter id="svgda56d7b3-shadow" x="-30%" y="-30%" width="160%" height="160%">
      <feDropShadow dx="0" dy="3" stdDeviation="4" flood-color="#000000" flood-opacity="0.10"/>
      <feDropShadow dx="0" dy="10" stdDeviation="16" flood-color="#000000" flood-opacity="0.12"/>
    </filter>
    <radialGradient id="svgda56d7b3-universal-edge-vignette" cx="50%" cy="50%" r="72%">
      <stop offset="0%" stop-color="var(--background)" stop-opacity="0"/>
      <stop offset="72%" stop-color="var(--background)" stop-opacity="0.12"/>
      <stop offset="100%" stop-color="var(--primary-text)" stop-opacity="0.08"/>
    </radialGradient>
    <linearGradient id="svgda56d7b3-universal-surface-sheen" x1="0%" y1="0%" x2="100%" y2="100%">
      <stop offset="0%" stop-color="var(--art-sheen)" stop-opacity="var(--art-sheen-opacity)"/>
      <stop offset="46%" stop-color="var(--art-sheen)" stop-opacity="0.035"/>
      <stop offset="100%" stop-color="var(--art-panel-tint)" stop-opacity="0.14"/>
    </linearGradient>
    <radialGradient id="svgda56d7b3-universal-icon-aura" cx="50%" cy="42%" r="64%">
      <stop offset="0%" stop-color="var(--art-glow)" stop-opacity="var(--art-glow-opacity)"/>
      <stop offset="100%" stop-color="var(--background)" stop-opacity="0"/>
    </radialGradient>
    <filter id="svgda56d7b3-text-glow" x="-20%" y="-20%" width="140%" height="140%">
      <feDropShadow dx="0" dy="0" stdDeviation="2" flood-color="#000000" flood-opacity="0.4"/>
    </filter>
    <marker id="svgda56d7b3-arrowhead" markerWidth="10" markerHeight="7" refX="9" refY="3.5" orient="auto" markerUnits="strokeWidth">
      <polygon points="0 0, 10 3.5, 0 7" fill="var(--muted-text)" opacity="0.6"/>
    </marker>
  </defs>
  <rect id="CANVAS_BG" width="100%" height="100%" fill="var(--background)"/>
  <rect width="100%" height="100%" fill="url(#svgda56d7b3-napkin-hatch)"/>
  <rect id="UNIVERSAL_EDGE_VIGNETTE" width="100%" height="100%" fill="url(#svgda56d7b3-universal-edge-vignette)" opacity="0.62"/>
  <text id="TITLE" x="960.0" y="59" text-anchor="middle" font-weight="800" font-size="56" fill="#0f172a" style="font-size: 69px; font-family: 'Segoe UI Variable Display', 'Aptos Display', 'Inter', 'Segoe UI', Helvetica, Arial, sans-serif; font-weight: 800; font-kerning: normal; font-feature-settings: &quot;kern&quot; 1, &quot;liga&quot; 1; letter-spacing:-1.2px;" data-final-font-size="69">
    <tspan x="960.0" dy="70.47px">Jay vs Jake Performance Contrast</tspan>
  </text>
  <rect id="TITLE_FRAME" x="134" y="59" width="1652" height="103" fill="none"/>
  <g id="FIELD">
    <rect x="190" y="248" width="660" height="300" rx="34" fill="var(--accent-1)" fill-opacity="0.08" stroke="var(--accent-1)" stroke-width="2" stroke-opacity="0.22"/>
    <rect x="1070" y="248" width="660" height="300" rx="34" fill="var(--accent-2)" fill-opacity="0.08" stroke="var(--accent-2)" stroke-width="2" stroke-opacity="0.22"/>
    <rect x="190" y="648" width="660" height="300" rx="34" fill="var(--accent-3)" fill-opacity="0.08" stroke="var(--accent-3)" stroke-width="2" stroke-opacity="0.18"/>
    <rect x="1070" y="648" width="660" height="300" rx="34" fill="var(--accent-4)" fill-opacity="0.08" stroke="var(--accent-4)" stroke-width="2" stroke-opacity="0.18"/>
    <line x1="960" y1="228" x2="960" y2="972" stroke="var(--primary-text)" stroke-width="11" stroke-opacity="0.20"/>
    <line x1="176" y1="600" x2="1744" y2="600" stroke="var(--primary-text)" stroke-width="11" stroke-opacity="0.20"/>
    <path d="M 960 534 L 1026 600 L 960 666 L 894 600 Z" fill="var(--panel)" fill-opacity="0.94" stroke="var(--primary-text)" stroke-width="4" stroke-opacity="0.28"/>
    <circle cx="960" cy="600" r="44" fill="var(--background)" stroke="var(--primary-text)" stroke-width="4"/>
    <g transform="translate(520, 392)">
      <rect id="ITEM_1_BG" x="-310" y="-126" width="620" height="252" rx="32" fill="var(--panel)" fill-opacity="0.95" stroke="var(--accent-1)" stroke-width="3" filter="url(#svgda56d7b3-shadow)"/>
      <rect x="-310" y="-126" width="620" height="252" rx="18" fill="url(#svgda56d7b3-universal-surface-sheen)" opacity="0.84"/>
      <rect x="254" y="-92" width="18" height="184" rx="9" fill="var(--accent-1)" fill-opacity="0.22"/>
      <circle cx="224" cy="-24" r="90" fill="none" stroke="var(--accent-1)" stroke-width="2.5" stroke-opacity="0.14"/>
      <text id="ITEM_1_HEAD" x="-244.0" y="-96.0" text-anchor="start" font-weight="700" font-size="34" fill="var(--semantic-claim)" data-bg-id="ITEM_1_BG" fill-opacity="1.0" style="font-size: 31px; font-family: 'Segoe UI Variable Display', 'Aptos Display', 'Inter', 'Segoe UI', Helvetica, Arial, sans-serif; font-weight: 700; font-kerning: normal; font-feature-settings: &quot;kern&quot; 1, &quot;liga&quot; 1; letter-spacing:-0.4px;" data-final-font-size="31">
        <tspan x="-244.0" dy="28.52px">Jay's Force</tspan>
      </text>
      <rect id="ITEM_1_HEAD_FRAME" x="-244" y="-96" width="400" height="40" fill="none"/>
      <text id="ITEM_1_BODY" x="-244.0" y="-4.0" text-anchor="start" font-size="24" fill="var(--primary-text)" opacity="0.92" data-bg-id="ITEM_1_BG" style="font-size: 23px; font-family: 'Segoe UI Variable Text', 'Aptos', 'Inter', 'Segoe UI', Helvetica, Arial, sans-serif; font-weight: 400; font-kerning: normal; font-feature-settings: &quot;kern&quot; 1, &quot;liga&quot; 1;" data-final-font-size="23">
        <tspan x="-244.0" dy="33.42px">Focuses on sharp accents and fuller</tspan>
        <tspan x="-244.0" dy="26.45px">body commitment</tspan>
      </text>
      <rect id="ITEM_1_BODY_FRAME" x="-244" y="-4" width="430" height="128" fill="none"/>
      <circle id="ITEM_1_PAD" cx="224" cy="-24" r="52" fill="var(--icon-pad-bg)" opacity="1" fill-opacity="0.9" stroke-width="2" stroke="var(--semantic-claim)" stroke-opacity="0.72" data-badge-layer="pad"/>
      <circle id="ITEM_1_PAD_INNER" cx="224" cy="-24" r="40.56" fill="var(--semantic-claim)" fill-opacity="0.12" stroke="none" data-badge-layer="tint"/>
      <circle cx="224" cy="-24" r="42" fill="none" stroke="var(--accent-1)" stroke-width="2.5" stroke-dasharray="6 4" display="none" data-suppressed-decoration="redundant-badge-ring"/>
      <g id="ITEM_1_ICON" transform="translate(182, -66)" data-icon-size="84" stroke-linecap="round" stroke-linejoin="round" data-badge-treatment="clean">
        <g transform="translate(-6.0,-7.5) scale(3.0)">
          <path d="M14.1215 9.87866L29.1215 24.8787C30.2931 26.0502 30.2931 27.9497 29.1215 29.1213C27.95 30.2929 26.0505 30.2929 24.8789 29.1213L9.87891 14.1213L14.1215 9.87866Z" fill="#7D4533"/>
          <path d="M12.4272 3.22946C12.534 3.12267 12.6833 3.06987 12.8335 3.0858L16.0299 3.425C16.4479 3.46936 16.6279 3.97849 16.3307 4.27576L13.6065 6.99988C13.6065 6.99988 13.1796 7.51941 13.6568 7.99988L15.6065 9.94963C15.8018 10.1449 15.8018 10.4615 15.6065 10.6567L10.6568 15.6065C10.4615 15.8017 10.1449 15.8017 9.94967 15.6065L9.65968 15.3165L6.49988 14.4999L5.53067 11.1875L5.35348 11.0103C5.15822 10.815 5.15822 10.4984 5.35348 10.3032L12.4272 3.22946Z" fill="#B4ACBC"/>
          <path d="M2.17674 12.2981C2.07911 12.2005 2.07911 12.0422 2.17674 11.9446L2.82021 11.3011C3.60126 10.5201 4.86758 10.5201 5.64863 11.3011L9.53772 15.1902C10.3188 15.9713 10.3188 17.2376 9.53772 18.0186L8.89425 18.6621C8.79662 18.7597 8.63833 18.7597 8.5407 18.6621L2.17674 12.2981Z" fill="#CDC4D6"/>
        </g>
      </g>
    </g>
    <g transform="translate(1400, 392)">
      <rect id="ITEM_2_BG" x="-310" y="-126" width="620" height="252" rx="32" fill="var(--panel)" fill-opacity="0.95" stroke="var(--accent-2)" stroke-width="3" filter="url(#svgda56d7b3-shadow)"/>
      <rect x="-310" y="-126" width="620" height="252" rx="18" fill="url(#svgda56d7b3-universal-surface-sheen)" opacity="0.84"/>
      <rect x="-272" y="-92" width="18" height="184" rx="9" fill="var(--accent-2)" fill-opacity="0.22"/>
      <circle cx="-224" cy="-24" r="90" fill="none" stroke="var(--accent-2)" stroke-width="2.5" stroke-opacity="0.14"/>
      <text id="ITEM_2_HEAD" x="244.0" y="-96.0" text-anchor="end" font-weight="700" font-size="34" fill="var(--semantic-positive)" data-bg-id="ITEM_2_BG" fill-opacity="1.0" style="font-size: 31px; font-family: 'Segoe UI Variable Display', 'Aptos Display', 'Inter', 'Segoe UI', Helvetica, Arial, sans-serif; font-weight: 700; font-kerning: normal; font-feature-settings: &quot;kern&quot; 1, &quot;liga&quot; 1; letter-spacing:-0.4px;" data-final-font-size="31">
        <tspan x="244.0" dy="28.52px">Jay's Edge</tspan>
      </text>
      <rect id="ITEM_2_HEAD_FRAME" x="-156" y="-96" width="400" height="40" fill="none"/>
      <text id="ITEM_2_BODY" x="274.0" y="-4.0" text-anchor="end" font-size="24" fill="var(--primary-text)" opacity="0.92" data-bg-id="ITEM_2_BG" style="font-size: 23px; font-family: 'Segoe UI Variable Text', 'Aptos', 'Inter', 'Segoe UI', Helvetica, Arial, sans-serif; font-weight: 400; font-kerning: normal; font-feature-settings: &quot;kern&quot; 1, &quot;liga&quot; 1;" data-final-font-size="23">
        <tspan x="274.0" dy="33.42px">Prevents bright material</tspan>
        <tspan x="274.0" dy="26.45px">from becoming overly soft</tspan>
      </text>
      <rect id="ITEM_2_BODY_FRAME" x="-156" y="-4" width="430" height="128" fill="none"/>
      <circle id="ITEM_2_PAD" cx="-224" cy="-24" r="52" fill="var(--icon-pad-bg)" opacity="1" fill-opacity="0.9" stroke-width="2" stroke="var(--semantic-positive)" stroke-opacity="0.72" data-badge-layer="pad"/>
      <circle id="ITEM_2_PAD_INNER" cx="-224" cy="-24" r="40.56" fill="var(--semantic-positive)" fill-opacity="0.12" stroke="none" data-badge-layer="tint"/>
      <circle cx="-224" cy="-24" r="42" fill="none" stroke="var(--accent-2)" stroke-width="2.5" stroke-dasharray="6 4" display="none" data-suppressed-decoration="redundant-badge-ring"/>
      <g id="ITEM_2_ICON" transform="translate(-266, -66)" data-icon-size="84" stroke-linecap="round" stroke-linejoin="round" data-badge-treatment="clean">
        <g transform="translate(-7.777777777777778,-7.7777777777777715) scale(4.148148148148148)" vector-effect="non-scaling-stroke" fill="#f1f5f9" fill-opacity="1.0" stroke="none">
          <path fill="#f1f5f9" d="M15 3h2l5 2l-5 2v3.17L22 21H2l6-8l3.5 4.7l3.5-7.53z" vector-effect="non-scaling-stroke" stroke="none"/>
        </g>
      </g>
    </g>
    <g transform="translate(520, 808)">
      <rect id="ITEM_3_BG" x="-310" y="-126" width="620" height="252" rx="32" fill="var(--panel)" fill-opacity="0.95" stroke="var(--accent-3)" stroke-width="3" filter="url(#svgda56d7b3-shadow)"/>
      <rect x="-310" y="-126" width="620" height="252" rx="18" fill="url(#svgda56d7b3-universal-surface-sheen)" opacity="0.84"/>
      <rect x="254" y="-92" width="18" height="184" rx="9" fill="var(--accent-3)" fill-opacity="0.22"/>
      <circle cx="224" cy="-24" r="90" fill="none" stroke="var(--accent-3)" stroke-width="2.5" stroke-opacity="0.14"/>
      <text id="ITEM_3_HEAD" x="-244.0" y="-96.0" text-anchor="start" font-weight="700" font-size="34" fill="var(--semantic-claim)" data-bg-id="ITEM_3_BG" fill-opacity="1.0" style="font-size: 31px; font-family: 'Segoe UI Variable Display', 'Aptos Display', 'Inter', 'Segoe UI', Helvetica, Arial, sans-serif; font-weight: 700; font-kerning: normal; font-feature-settings: &quot;kern&quot; 1, &quot;liga&quot; 1; letter-spacing:-0.4px;" data-final-font-size="31">
        <tspan x="-244.0" dy="28.52px">Jake's Flow</tspan>
      </text>
      <rect id="ITEM_3_HEAD_FRAME" x="-244" y="-96" width="400" height="40" fill="none"/>
      <text id="ITEM_3_BODY" x="-244.0" y="-4.0" text-anchor="start" font-size="24" fill="var(--primary-text)" opacity="0.92" data-bg-id="ITEM_3_BG" style="font-size: 23px; font-family: 'Segoe UI Variable Text', 'Aptos', 'Inter', 'Segoe UI', Helvetica, Arial, sans-serif; font-weight: 400; font-kerning: normal; font-feature-settings: &quot;kern&quot; 1, &quot;liga&quot; 1;" data-final-font-size="23">
        <tspan x="-244.0" dy="33.42px">Balances athletic movement</tspan>
        <tspan x="-244.0" dy="26.45px">with conversational style expressions</tspan>
      </text>
      <rect id="ITEM_3_BODY_FRAME" x="-244" y="-4" width="430" height="128" fill="none"/>
      <circle id="ITEM_3_PAD" cx="224" cy="-24" r="52" fill="var(--icon-pad-bg)" opacity="1" fill-opacity="0.9" stroke-width="2" stroke="var(--semantic-claim)" stroke-opacity="0.72" data-badge-layer="pad"/>
      <circle id="ITEM_3_PAD_INNER" cx="224" cy="-24" r="40.56" fill="var(--semantic-claim)" fill-opacity="0.12" stroke="none" data-badge-layer="tint"/>
      <circle cx="224" cy="-24" r="42" fill="none" stroke="var(--accent-3)" stroke-width="2.5" stroke-dasharray="6 4" display="none" data-suppressed-decoration="redundant-badge-ring"/>
      <g id="ITEM_3_ICON" transform="translate(182, -66)" data-icon-size="84" stroke-linecap="round" stroke-linejoin="round" data-badge-treatment="clean">
        <g transform="translate(-2.8,-3.1499999999999986) scale(0.175)" vector-effect="non-scaling-stroke" fill="#f1f5f9" fill-opacity="1.0" stroke="none">
          <path fill="#f1f5f9" d="M357.676 20.387q-3.917.014-7.856.29c-63.314 4.438-131.13 58.006-142.117 130.253L494 162.992V89.656c-8.09-7.792-16.415-15.25-24.953-22.177c-34.59-28.067-72.195-47.234-111.37-47.093zM125.55 40.812C89.363 40.94 51.743 55.725 18 86.825v81.3l172.107-18.815l-.363-.054c3.872-26.688 14.327-50.957 29.162-71.742c-26.973-24.13-59.536-36.82-93.357-36.7zm110.263 129.514c-24.49-.258-109.87 12.136-109.602 27.078c.46 25.55 104.433 51.553 94.726 53.018C122.553 265.27 67.968 265.427 35.34 295.2c-38.914 35.507 214.983 80.92 184.422 89.687c-57.204 16.412-107.82 36.256-109.002 88.414c-.17 7.52.8 14.385 2.705 20.7h54.945c-15.423-20.635-24.05-40.664-14.6-45.912c10.413 15.107 22.492 31.126 36.174 45.912h64.286c-19.474-9.912-51.732-29.408-50.594-49.424c1.6-28.17 66.37-47.758 69.883-47.758c0 0-48.786 26.384-49.867 49.866c-.767 16.68 22.317 36.985 35.69 47.316h51.976c-16.454-12.325-26.478-24.92-20.426-31.885c15.54 11.066 33.115 22.438 51.826 31.885h106.717c-56.74-15.988-102.683-32.67-115.225-53.127c-10.196-16.63 72.362-27.836 60.408-78.902c-5.79-24.738-58.24-41.094-203.222-62.626c-25.368-3.768 134.358-19.456 129.818-57.11c-2.65-21.98-103.288-26.85-114.58-36.933c-4.746-4.237 5.863-29.56 29.137-34.974zM91.425 308.056c33.376-.145 84.385 22.424 122.8 36.747l-1.79 11.67c-28.404-10.606-103.905-37.464-127.442-48.077c2.06-.22 4.207-.332 6.432-.34m270.234 53.803q.156-.01-.015.253c3.9 12.183-21.487 44.05-61.807 42.842c14.153-7.15 59.732-43.004 61.822-43.096z" vector-effect="non-scaling-stroke" stroke="none"/>
        </g>
      </g>
    </g>
    <g transform="translate(1400, 808)">
      <rect id="ITEM_4_BG" x="-310" y="-126" width="620" height="252" rx="32" fill="var(--panel)" fill-opacity="0.95" stroke="var(--accent-4)" stroke-width="3" filter="url(#svgda56d7b3-shadow)"/>
      <rect x="-310" y="-126" width="620" height="252" rx="18" fill="url(#svgda56d7b3-universal-surface-sheen)" opacity="0.84"/>
      <rect x="-272" y="-92" width="18" height="184" rx="9" fill="var(--accent-4)" fill-opacity="0.22"/>
      <circle cx="-224" cy="-24" r="90" fill="none" stroke="var(--accent-4)" stroke-width="2.5" stroke-opacity="0.14"/>
      <text id="ITEM_4_HEAD" x="244.0" y="-96.0" text-anchor="end" font-weight="700" font-size="34" fill="var(--semantic-positive)" data-bg-id="ITEM_4_BG" fill-opacity="1.0" style="font-size: 31px; font-family: 'Segoe UI Variable Display', 'Aptos Display', 'Inter', 'Segoe UI', Helvetica, Arial, sans-serif; font-weight: 700; font-kerning: normal; font-feature-settings: &quot;kern&quot; 1, &quot;liga&quot; 1; letter-spacing:-0.4px;" data-final-font-size="31">
        <tspan x="244.0" dy="28.52px">Jake's Bridge</tspan>
      </text>
      <rect id="ITEM_4_HEAD_FRAME" x="-156" y="-96" width="400" height="40" fill="none"/>
      <text id="ITEM_4_BODY" x="274.0" y="-4.0" text-anchor="end" font-size="24" fill="var(--primary-text)" opacity="0.92" data-bg-id="ITEM_4_BG" style="font-size: 23px; font-family: 'Segoe UI Variable Text', 'Aptos', 'Inter', 'Segoe UI', Helvetica, Arial, sans-serif; font-weight: 400; font-kerning: normal; font-feature-settings: &quot;kern&quot; 1, &quot;liga&quot; 1;" data-final-font-size="23">
        <tspan x="274.0" dy="33.42px">Connects restrained verses to powerful</tspan>
        <tspan x="274.0" dy="26.45px">explosive choruses</tspan>
      </text>
      <rect id="ITEM_4_BODY_FRAME" x="-156" y="-4" width="430" height="128" fill="none"/>
      <circle id="ITEM_4_PAD" cx="-224" cy="-24" r="52" fill="var(--icon-pad-bg)" opacity="1" fill-opacity="0.9" stroke-width="2" stroke="var(--semantic-positive)" stroke-opacity="0.72" data-badge-layer="pad"/>
      <circle id="ITEM_4_PAD_INNER" cx="-224" cy="-24" r="40.56" fill="var(--semantic-positive)" fill-opacity="0.12" stroke="none" data-badge-layer="tint"/>
      <circle cx="-224" cy="-24" r="42" fill="none" stroke="var(--accent-4)" stroke-width="2.5" stroke-dasharray="6 4" display="none" data-suppressed-decoration="redundant-badge-ring"/>
      <g id="ITEM_4_ICON" transform="translate(-266, -66)" data-icon-size="84" stroke-linecap="round" stroke-linejoin="round" data-badge-treatment="clean">
        <g transform="translate(-2.8,-2.8) scale(2.8)" vector-effect="non-scaling-stroke" fill="#f1f5f9" fill-opacity="1.0" stroke="none">
          <path fill="#f1f5f9" d="M31 16a2 2 0 0 0-.586-1.414l-5.793-5.793l2.868-2.868a2 2 0 1 0-1.414-1.414L23.207 7.38l-5.793-5.793a2 2 0 0 0-2.828 0L8.793 7.379L5.925 4.51a2 2 0 1 0-1.414 1.414l2.868 2.868l-5.793 5.793a2 2 0 0 0 0 2.828l5.793 5.793l-2.868 2.868a2 2 0 1 0 1.414 1.414l2.868-2.868l5.793 5.793a2 2 0 0 0 2.828 0l5.793-5.793l2.868 2.868a2 2 0 1 0 1.414-1.414l-2.868-2.868l5.793-5.793A2 2 0 0 0 31 16m-7.793 5.793L20.414 19L19 20.414l2.793 2.793L16 29l-5.793-5.793L13 20.414L11.586 19l-2.793 2.793L3 16l5.793-5.793L11.586 13L13 11.586l-2.793-2.793L16 3l5.794 5.793L19 11.586L20.414 13l2.794-2.793L29 16Z" vector-effect="non-scaling-stroke" stroke="none"/>
        </g>
      </g>
    </g>
  </g>
  <text id="SOURCE_NOTE" x="134.0" y="1058.0" fill="var(--muted-text)" opacity="0.88" style="font-family: var(--font-family); font-size: 20px;">Source: Introduction</text>
</svg>
