<?xml version='1.0' encoding='utf-8'?>
<svg xmlns="http://www.w3.org/2000/svg" width="1920" height="1080" viewBox="0 0 1920 1080" data-theme="light" data-semantic-intent="uncertain_compare" data-relation-type="comparison" data-site-visual-identity="heritage-amber">
  <style>
        @font-face {
            font-family: 'Inter';
            src: url('assets/fonts/Inter-Regular.ttf') format('truetype');
            font-weight: 400;
            font-style: normal;
            font-display: swap;
        }
        @font-face {
            font-family: 'Inter';
            src: url('assets/fonts/Inter-Bold.ttf') format('truetype');
            font-weight: 600;
            font-style: normal;
            font-display: swap;
        }
        @font-face {
            font-family: 'Inter';
            src: url('assets/fonts/Inter-Bold.ttf') format('truetype');
            font-weight: 800;
            font-style: normal;
            font-display: swap;
        }
        
:root {
    --background: #f8fafc;
    --panel: #ffffff;
    --primary-text: #0f172a;
    --muted-text: #64748b;
    --inverse-text: #ffffff;
    --border: #e2e8f0;
    --shadow-color: #000000;
    --icon-pad-bg: #1e293b;
    --art-glow: #0891b2;
    --art-glow-opacity: 0.10;
    --art-sheen: #ffffff;
    --art-sheen-opacity: 0.34;
    --art-shadow: #0f172a;
    --art-shadow-opacity: 0.14;
    --art-muted-line: #94a3b8;
    --art-panel-tint: #f1f5f9;
    --semantic-risk: #b91c1c;
    --semantic-warning: #c2410c;
    --semantic-uncertain: #a16207;
    --semantic-evidence: #1d4ed8;
    --semantic-claim: #6d28d9;
    --semantic-positive: #15803d;
    --semantic-outcome: #0e7490;
    --font-family: 'Inter', 'Segoe UI', 'Kalam', Roboto, Helvetica, Arial, sans-serif;
    --radius-xl: 16px;
    --font-family-headline: 'Segoe UI Variable Display', 'Aptos Display', 'Inter', 'Segoe UI', Helvetica, Arial, sans-serif;
    --font-family-body: 'Segoe UI Variable Text', 'Aptos', 'Inter', 'Segoe UI', Helvetica, Arial, sans-serif;
    --font-heading: var(--font-family-headline);
    --font-body: var(--font-family-body);
    --font-size-h1: 64px;
    --font-size-h2: 42px;
    --font-size-h3: 29px;
    --font-size-body: 21px;
    --font-size-caption: 17px;
    --secondary-text: var(--muted-text);
    --panel-border: var(--border);
    --font-weight-normal: 400;
    --font-weight-medium: 500;
    --font-weight-semibold: 600;
    --font-weight-bold: 700;
    --spacing-gutter-pct: 0.07;
    --spacing-top-pct: 0.15;
    --spacing-bottom-pct: 0.07;
    --spacing-title-y-pct: 0.055;
    --accent-1: #a16207;
    --accent-2: #c2410c;
    --accent-3: #b45309;
    --accent-4: #b91c1c;
    --accent-5: #92400e;
    --accent-6: #0369a1;
}
:root[data-theme="dark"] {
    --background: #0f172a;
    --panel: #1e293b;
    --primary-text: #f1f5f9;
    --muted-text: #94a3b8;
    --inverse-text: #0f172a;
    --border: #334155;
    --shadow-color: #000000;
    --icon-pad-bg: #1e293b;
    --art-glow: #7dd3fc;
    --art-glow-opacity: 0.18;
    --art-sheen: #ffffff;
    --art-sheen-opacity: 0.18;
    --art-shadow: #000000;
    --art-shadow-opacity: 0.28;
    --art-muted-line: #64748b;
    --art-panel-tint: #1e293b;
    --semantic-risk: #f87171;
    --semantic-warning: #fb923c;
    --semantic-uncertain: #fbbf24;
    --semantic-evidence: #60a5fa;
    --semantic-claim: #c084fc;
    --semantic-positive: #4ade80;
    --semantic-outcome: #22d3ee;
    --accent-1: #fbbf24;
    --accent-2: #fb923c;
    --accent-3: #f59e0b;
    --accent-4: #fca5a5;
    --accent-5: #d6a66f;
    --accent-6: #7dd3fc;
}
:root[data-theme="light"] {
    --background: #f8fafc;
    --panel: #ffffff;
    --primary-text: #0f172a;
    --muted-text: #64748b;
    --inverse-text: #ffffff;
    --border: #e2e8f0;
    --shadow-color: #000000;
    --icon-pad-bg: #1e293b;
    --art-glow: #0891b2;
    --art-glow-opacity: 0.10;
    --art-sheen: #ffffff;
    --art-sheen-opacity: 0.34;
    --art-shadow: #0f172a;
    --art-shadow-opacity: 0.14;
    --art-muted-line: #94a3b8;
    --art-panel-tint: #f1f5f9;
    --semantic-risk: #b91c1c;
    --semantic-warning: #c2410c;
    --semantic-uncertain: #a16207;
    --semantic-evidence: #1d4ed8;
    --semantic-claim: #6d28d9;
    --semantic-positive: #15803d;
    --semantic-outcome: #0e7490;
    --accent-1: #a16207;
    --accent-2: #c2410c;
    --accent-3: #b45309;
    --accent-4: #b91c1c;
    --accent-5: #92400e;
    --accent-6: #0369a1;
}</style>
  <rect x="0" y="0" width="1.92E+3" height="1.08E+3" fill="#252a34" stroke="none" id="programmatic_background"/>
  <line id="HEADER_DECOR" x1="960.0" x2="1080.0" y1="85.0" y2="85.0" stroke="var(--accent-1)" stroke-width="6" stroke-linecap="round"/>
  <defs>
    <pattern id="svg77d7b0e6-napkin-hatch" patternUnits="userSpaceOnUse" width="12" height="12">
      <path d="M -3 12 L 12 -3 M 0 15 L 15 0" fill="none" stroke="var(--primary-text)" stroke-width="1" stroke-opacity="0.05"/>
    </pattern>
    <filter id="svg77d7b0e6-shadow" x="-30%" y="-30%" width="160%" height="160%">
      <feDropShadow dx="0" dy="2" stdDeviation="3" flood-color="#000000" flood-opacity="0.08"/>
      <feDropShadow dx="0" dy="6" stdDeviation="10" flood-color="#000000" flood-opacity="0.12"/>
    </filter>
    <marker id="svg77d7b0e6-arrowhead" markerWidth="10" markerHeight="10" refX="9" refY="5" orient="auto">
      <path d="M 0 0 L 10 5 L 0 10 Z" fill="var(--accent-1)"/>
    </marker>
    <filter id="svg77d7b0e6-text-glow" x="-20%" y="-20%" width="140%" height="140%">
      <feDropShadow dx="0" dy="0" stdDeviation="2" flood-color="#000000" flood-opacity="0.4"/>
    </filter>
    <radialGradient id="svg77d7b0e6-universal-edge-vignette" cx="50%" cy="50%" r="72%">
      <stop offset="0%" stop-color="var(--background)" stop-opacity="0"/>
      <stop offset="72%" stop-color="var(--background)" stop-opacity="0.12"/>
      <stop offset="100%" stop-color="var(--primary-text)" stop-opacity="0.08"/>
    </radialGradient>
    <linearGradient id="svg77d7b0e6-universal-surface-sheen" x1="0%" y1="0%" x2="100%" y2="100%">
      <stop offset="0%" stop-color="var(--art-sheen)" stop-opacity="var(--art-sheen-opacity)"/>
      <stop offset="46%" stop-color="var(--art-sheen)" stop-opacity="0.035"/>
      <stop offset="100%" stop-color="var(--art-panel-tint)" stop-opacity="0.14"/>
    </linearGradient>
    <radialGradient id="svg77d7b0e6-universal-icon-aura" cx="50%" cy="42%" r="64%">
      <stop offset="0%" stop-color="var(--art-glow)" stop-opacity="var(--art-glow-opacity)"/>
      <stop offset="100%" stop-color="var(--background)" stop-opacity="0"/>
    </radialGradient>
    <linearGradient id="svg77d7b0e6-card-panel-sheen" x1="0%" y1="0%" x2="100%" y2="100%">
      <stop offset="0%" stop-color="var(--inverse-text)" stop-opacity="0.20"/>
      <stop offset="48%" stop-color="var(--inverse-text)" stop-opacity="0.04"/>
      <stop offset="100%" stop-color="var(--background)" stop-opacity="0.16"/>
    </linearGradient>
    <radialGradient id="svg77d7b0e6-card-icon-glow" cx="50%" cy="35%" r="62%">
      <stop offset="0%" stop-color="var(--inverse-text)" stop-opacity="0.22"/>
      <stop offset="100%" stop-color="var(--background)" stop-opacity="0"/>
    </radialGradient>
  </defs>
  <rect width="100%" height="100%" fill="var(--background)" id="CANVAS_BG"/>
  <rect width="100%" height="100%" fill="url(#svg77d7b0e6-napkin-hatch)"/>
  <rect id="UNIVERSAL_EDGE_VIGNETTE" width="100%" height="100%" fill="url(#svg77d7b0e6-universal-edge-vignette)" opacity="0.62"/>
  <text id="TITLE" x="960.0" y="59" font-size="48" font-weight="700" fill="#0f172a" text-anchor="middle" style="font-size: 69px; font-family: 'Segoe UI Variable Display', 'Aptos Display', 'Inter', 'Segoe UI', Helvetica, Arial, sans-serif; font-weight: 800; font-kerning: normal; font-feature-settings: &quot;kern&quot; 1, &quot;liga&quot; 1; letter-spacing:-1.2px;" data-final-font-size="69">
    <tspan x="960.0" dy="70.47px">Narrative Meanings of Low Levels</tspan>
  </text>
  <rect id="TITLE_FRAME" x="134" y="25" width="1652" height="70" fill="none"/>
  <g id="DIAGRAM_MAIN">
    <rect id="ITEM_1_BG" x="485" y="170" width="480" height="410" rx="16" fill="var(--semantic-uncertain)" stroke="var(--accent-1)" stroke-width="2" filter="url(#svg77d7b0e6-shadow)" fill-opacity="1.0"/>
    <rect x="485" y="170" width="480" height="410" rx="16" fill="url(#svg77d7b0e6-card-panel-sheen)" opacity="0.88"/>
    <rect x="485" y="186" width="460" height="12" fill="var(--accent-1)"/>
    <rect id="ITEM_1_HEAD_FRAME" x="500" y="288" width="450" height="96" fill="none"/>
    <rect id="ITEM_1_BODY_FRAME" x="500" y="382" width="450" height="168" fill="none"/>
    <circle id="ITEM_1_PAD" cx="715" cy="231" r="55" fill="var(--icon-pad-bg)" stroke="var(--semantic-uncertain)" opacity="1" fill-opacity="0.9" stroke-width="2" stroke-opacity="0.72" data-badge-layer="pad"/>
    <circle cx="715" cy="231" r="44" fill="none" stroke="var(--accent-1)" stroke-width="3" stroke-dasharray="6 4" display="none" data-suppressed-decoration="redundant-badge-ring"/>
    <circle id="ITEM_1_BADGE" cx="715" cy="231" r="43" fill="var(--accent-1)" stroke="var(--background)" stroke-width="4" fill-opacity="0.35" opacity="0.85" stroke-opacity="0.75"/>
    <g id="ITEM_1_ICON" transform="translate(682, 198)" data-icon-size="66" stroke-linecap="round" stroke-linejoin="round" data-badge-treatment="clean">
      <g transform="translate(-16.028571428571425,-22.15714285714286) scale(3.064285714285714)">
        <path d="M15.3913 25.7437C15.2593 25.9257 15.1882 26.1281 15.1882 26.3506L15.1679 29.4259C15.1679 29.8912 14.6396 30.1644 14.2536 29.8912C10.7895 27.4533 3.83079 21.8996 2.2562 15.7692C1.06763 11.1361 4.01365 4.92484 11.1145 6.159C12.8517 6.46248 14.5177 7.68652 15.2593 8.83975C15.3507 8.97126 15.5234 9.4366 15.5234 9.4366C15.5285 9.44671 15.531 9.4543 15.5336 9.46189C15.5361 9.46947 15.5386 9.47706 15.5437 9.48718L16.9355 13.2099C17.0574 13.5437 17.0066 13.918 16.7831 14.1911L16.1532 14.9903C16.1431 15.0004 16.1329 15.0131 16.1228 15.0257C16.1126 15.0384 16.1025 15.051 16.0923 15.0611L14.3856 16.8415C14.0809 17.1653 14.0199 17.6407 14.2333 18.0251L16.8644 22.8201C17.0574 23.1641 17.0269 23.5991 16.7831 23.9127L15.3913 25.7437Z" fill="#F92F60"/>
        <path d="M16.9289 8.32019C17.8637 7.3415 19.1169 6.44352 20.7502 6.16102C27.951 4.92 30.9299 11.115 29.7486 15.736C28.1461 21.9109 20.9967 27.4904 17.5247 29.8917C17.1344 30.1641 16.6002 29.8917 16.6002 29.4175L16.6208 26.9859C16.6208 26.764 16.6927 26.5521 16.8262 26.3806L18.6238 24.0499C18.8704 23.7371 18.9012 23.3133 18.706 22.9602L16.1277 18.319C15.912 17.9356 15.9736 17.4513 16.2818 17.1385L17.0317 16.3616C17.0419 16.3515 17.0522 16.3389 17.0625 16.3263C17.0727 16.3137 17.083 16.3011 17.0933 16.291L18.5109 14.5354C18.7266 14.263 18.7882 13.8896 18.6649 13.5567L16.8365 8.72377C16.8262 8.71368 16.8057 8.63296 16.8057 8.57243C16.8057 8.42108 16.9289 8.32019 16.9289 8.32019Z" fill="#F92F60"/>
      </g>
    </g>
    <text id="ITEM_1_HEAD" x="725.0" y="288.0" font-weight="700" font-size="26" fill="var(--inverse-text)" text-anchor="middle" data-bg-id="ITEM_1_BG" fill-opacity="1.0" style="font-size: 31px; font-family: 'Segoe UI Variable Display', 'Aptos Display', 'Inter', 'Segoe UI', Helvetica, Arial, sans-serif; font-weight: 700; font-kerning: normal; font-feature-settings: &quot;kern&quot; 1, &quot;liga&quot; 1; letter-spacing:-0.4px;" data-final-font-size="31">
      <tspan x="725.0" dy="56.52px">Weakness Portrayal</tspan>
    </text>
    <text id="ITEM_1_BODY" x="725.0" y="382.0" font-size="21" fill="var(--inverse-text)" text-anchor="middle" data-bg-id="ITEM_1_BG" style="font-size: 23px; font-family: 'Segoe UI Variable Text', 'Aptos', 'Inter', 'Segoe UI', Helvetica, Arial, sans-serif; font-weight: 400; font-kerning: normal; font-feature-settings: &quot;kern&quot; 1, &quot;liga&quot; 1;" data-final-font-size="23">
      <tspan x="725.0" dy="41.42px">Lowered bodies suggest emotional</tspan>
      <tspan x="725.0" dy="26.45px">collapse rather than physical defeat</tspan>
    </text>
    <rect id="ITEM_2_BG" x="975" y="170" width="480" height="410" rx="16" fill="var(--semantic-evidence)" stroke="var(--accent-2)" stroke-width="2" filter="url(#svg77d7b0e6-shadow)" fill-opacity="1.0"/>
    <rect x="975" y="170" width="480" height="410" rx="16" fill="url(#svg77d7b0e6-card-panel-sheen)" opacity="0.88"/>
    <rect x="975" y="186" width="460" height="12" fill="var(--accent-2)"/>
    <rect id="ITEM_2_HEAD_FRAME" x="990" y="288" width="450" height="96" fill="none"/>
    <rect id="ITEM_2_BODY_FRAME" x="990" y="382" width="450" height="168" fill="none"/>
    <circle id="ITEM_2_PAD" cx="1205" cy="231" r="55" fill="var(--icon-pad-bg)" stroke="var(--semantic-evidence)" opacity="1" fill-opacity="0.9" stroke-width="2" stroke-opacity="0.72" data-badge-layer="pad"/>
    <circle cx="1205" cy="231" r="44" fill="none" stroke="var(--accent-2)" stroke-width="3" stroke-dasharray="6 4" display="none" data-suppressed-decoration="redundant-badge-ring"/>
    <circle id="ITEM_2_BADGE" cx="1205" cy="231" r="43" fill="var(--accent-2)" stroke="var(--background)" stroke-width="4" fill-opacity="0.35" opacity="0.85" stroke-opacity="0.75"/>
    <g id="ITEM_2_ICON" transform="translate(1172, 198)" data-icon-size="66" stroke-linecap="round" stroke-linejoin="round" data-badge-treatment="clean">
      <g transform="translate(-12.044999999999998,-12.759999999999998) scale(0.17875)" vector-effect="non-scaling-stroke" fill="#ffffff" fill-opacity="1.0" stroke="none">
        <path fill="#ffffff" d="M196.375 18.25c3.91 19.165-.907 37.814-14.72 55.5c-15.853 20.302-44.172 38.85-84.81 51.188c-34.84 10.577-58.396 29.203-71 50.937c-12.606 21.734-14.02 46.364-5.72 67.5c14.824 37.743 60.4 62.92 121.28 47.438c12.883-4.053 27.47-10 38.97-17.188a85 85 0 0 0 6.938-4.813a41 41 0 0 1-9.344-13.031c-13.048 8.047-29.743 16.232-51.532 19.376c-47.934 8.963-78.497-12.01-88.938-38.594c-6.257-15.93-5.374-34.287 4.5-51.312s29.002-32.94 60.28-42.438c43.283-13.14 75.046-33.17 94.095-57.562c15.77-20.194 22.4-43.702 18.906-67zm17.844 151.47c-.788 0-1.588 0-2.376.03c-11.464.415-23.03 3.582-33.656 9.72c-26.423 15.252-39.106 44.164-34.25 72.25c12.21-4.294 22.097-10.274 30.906-16.157c1.418-11.078 7.93-21.27 18.72-27.5c6.337-3.66 13.285-5.464 20.124-5.5c13.055-.07 25.668 6.304 32.656 18.406c10.648 18.44 4.066 42.974-14.375 53.624c-8.564 4.945-18.115 5.99-26.97 3.844c-4.427 4.08-9.466 7.747-14.72 11.03c-5.286 3.306-10.918 6.29-16.655 8.97c15.17 10.68 33.97 15.17 52.25 12.125h.03l72.376 125.406c17.27 29.907 42.53 48.207 68.783 54.467c26.25 6.26 52.74 1.16 74.25-12.03c43.02-26.38 66.36-87.515 33.53-144.376l-16.53-28.655l-.157-.28c-19.615-36.032-45.045-60.504-75.344-75.283c12.778 45.916 17.4 91.832 16.094 137.75l28.688-34l4.906-3L443 348.72c21.954 38.025 3.593 72.716-21.125 87.874c-35.704 16.537-62.567 12.018-84.625-23.125l-71.78-124.376c20.72-22.425 25.7-57.052 9.78-84.625c-13-22.517-36.637-34.833-61.03-34.75z" vector-effect="non-scaling-stroke" stroke="none"/>
      </g>
    </g>
    <text id="ITEM_2_HEAD" x="1215.0" y="288.0" font-weight="700" font-size="26" fill="var(--inverse-text)" text-anchor="middle" data-bg-id="ITEM_2_BG" fill-opacity="1.0" style="font-size: 31px; font-family: 'Segoe UI Variable Display', 'Aptos Display', 'Inter', 'Segoe UI', Helvetica, Arial, sans-serif; font-weight: 700; font-kerning: normal; font-feature-settings: &quot;kern&quot; 1, &quot;liga&quot; 1; letter-spacing:-0.4px;" data-final-font-size="31">
      <tspan x="1215.0" dy="56.52px">Temptation Visuals</tspan>
    </text>
    <text id="ITEM_2_BODY" x="1215.0" y="382.0" font-size="21" fill="var(--inverse-text)" text-anchor="middle" data-bg-id="ITEM_2_BG" style="font-size: 23px; font-family: 'Segoe UI Variable Text', 'Aptos', 'Inter', 'Segoe UI', Helvetica, Arial, sans-serif; font-weight: 400; font-kerning: normal; font-feature-settings: &quot;kern&quot; 1, &quot;liga&quot; 1;" data-final-font-size="23">
      <tspan x="1215.0" dy="41.42px">Members appear pulled downward</tspan>
      <tspan x="1215.0" dy="26.45px">before resisting external forces</tspan>
    </text>
    <rect id="ITEM_3_BG" x="485" y="600" width="480" height="410" rx="16" fill="var(--semantic-uncertain)" stroke="var(--accent-3)" stroke-width="2" filter="url(#svg77d7b0e6-shadow)" fill-opacity="1.0"/>
    <rect x="485" y="600" width="480" height="410" rx="16" fill="url(#svg77d7b0e6-card-panel-sheen)" opacity="0.88"/>
    <rect x="485" y="616" width="460" height="12" fill="var(--accent-3)"/>
    <rect id="ITEM_3_HEAD_FRAME" x="500" y="718" width="450" height="96" fill="none"/>
    <rect id="ITEM_3_BODY_FRAME" x="500" y="812" width="450" height="168" fill="none"/>
    <circle id="ITEM_3_PAD" cx="715" cy="661" r="55" fill="var(--icon-pad-bg)" stroke="var(--semantic-uncertain)" opacity="1" fill-opacity="0.9" stroke-width="2" stroke-opacity="0.72" data-badge-layer="pad"/>
    <circle cx="715" cy="661" r="44" fill="none" stroke="var(--accent-3)" stroke-width="3" stroke-dasharray="6 4" display="none" data-suppressed-decoration="redundant-badge-ring"/>
    <circle id="ITEM_3_BADGE" cx="715" cy="661" r="43" fill="var(--accent-3)" stroke="var(--background)" stroke-width="4" fill-opacity="0.35" opacity="0.85" stroke-opacity="0.75"/>
    <g id="ITEM_3_ICON" transform="translate(682, 628)" data-icon-size="66" stroke-linecap="round" stroke-linejoin="round" data-badge-treatment="clean">
      <g transform="translate(-16.028571428571425,-16.028571428571425) scale(3.064285714285714)">
        <path d="M27.5 2C26.88 2 26.31 2.23 25.87 2.6L16 11L6.13 2.6C5.69 2.23 5.12 2 4.5 2C3.12 2 2 3.12 2 4.5V14.25C2 16.32 3.68 18 5.75 18H8C4.69 18 2 20.69 2 24C2 27.31 4.69 30 8 30C10.36 30 12.4 28.64 13.38 26.66C13.49 26.43 13.59 26.2 13.67 25.96L16 20.3904L18.33 25.96C18.41 26.2 18.51 26.43 18.62 26.66C19.6 28.64 21.64 30 24 30C27.31 30 30 27.31 30 24C30 20.69 27.31 18 24 18H26.25C28.32 18 30 16.32 30 14.25V4.5C30 3.12 28.88 2 27.5 2Z" fill="#533566"/>
        <path d="M10.21 13.9599L5.45001 11.2099C4.91001 10.8899 4.23001 11.2899 4.23001 11.9199V13.9199C4.23001 15.6199 5.61001 16.9999 7.31001 16.9999C7.93001 16.9999 8.53001 16.7499 8.97001 16.3099L10.34 14.9399C10.63 14.6499 10.57 14.1699 10.21 13.9599Z" fill="#FF822D"/>
        <path d="M22.02 13.9599L26.78 11.2099C27.32 10.8899 28 11.2899 28 11.9199V13.9199C28 15.6199 26.62 16.9999 24.92 16.9999C24.3 16.9999 23.7 16.7499 23.26 16.3099L21.89 14.9399C21.6 14.6499 21.66 14.1699 22.02 13.9599Z" fill="#FF822D"/>
        <path d="M17 16.8499L19.77 15.2499C20.15 15.0399 20.63 15.0999 20.94 15.4099L21.74 16.2099C22.03 16.4999 21.82 16.9999 21.41 16.9999H17V16.8499Z" fill="#FF822D"/>
        <path d="M12.46 15.2499L15.23 16.8499V16.9999H10.82C10.41 16.9999 10.2 16.4999 10.49 16.2099L11.29 15.4099C11.6 15.0999 12.08 15.0399 12.46 15.2499Z" fill="#FF822D"/>
        <path d="M4.23001 5.98009V8.20009C4.23001 8.91009 4.61001 9.57009 5.22001 9.92009L15.23 15.7001V13.0001L5.76001 5.25009C5.15001 4.75009 4.23001 5.19009 4.23001 5.98009Z" fill="#FF6723"/>
        <path d="M28 5.98009V8.20009C28 8.91009 27.62 9.57009 27.01 9.92009L17 15.7001V13.0001L26.47 5.25009C27.08 4.75009 28 5.19009 28 5.98009Z" fill="#FF6723"/>
        <path d="M12.96 19.5H9.64001C9.09001 19.5 8.82001 20.16 9.21001 20.54L12.16 23.49C12.47 23.8 12.99 23.69 13.16 23.29L14.06 21.14C14.39 20.37 13.81 19.5 12.96 19.5Z" fill="#FF6723"/>
        <path d="M6.02 19.9599C4.53 20.6899 3.5 22.2299 3.5 23.9999C3.5 26.4699 5.45 28.4599 7.91 28.4999C9.67 28.5299 11.25 27.5699 12.03 25.9899L12.04 25.9699C12.04 25.9649 12.0425 25.9624 12.045 25.9599C12.0475 25.9574 12.05 25.9549 12.05 25.9499C12.27 25.4799 12.17 24.9099 11.8 24.5399L7.45 20.1999C7.07 19.8199 6.5 19.7199 6.02 19.9599ZM6.64 27.01C5.73425 27.01 5 26.2757 5 25.37C5 24.4642 5.73425 23.73 6.64 23.73C7.54575 23.73 8.28 24.4642 8.28 25.37C8.28 26.2757 7.54575 27.01 6.64 27.01Z" fill="#FF6723"/>
        <path d="M19.08 19.5H22.4C22.95 19.5 23.22 20.16 22.83 20.54L19.88 23.49C19.57 23.8 19.05 23.69 18.88 23.29L17.98 21.14C17.65 20.37 18.23 19.5 19.08 19.5Z" fill="#FF6723"/>
        <path d="M26.02 19.9599C27.51 20.6899 28.54 22.2299 28.54 23.9999C28.54 26.4699 26.59 28.4599 24.13 28.4999C22.37 28.5299 20.79 27.5699 20.01 25.9899L20 25.9799C20 25.9749 19.9975 25.9724 19.995 25.9699C19.9925 25.9674 19.99 25.9649 19.99 25.9599C19.77 25.4899 19.87 24.9199 20.24 24.5499L24.59 20.1999C24.97 19.8199 25.54 19.7199 26.02 19.9599ZM25.4 26.8801C26.3058 26.8801 27.04 26.1458 27.04 25.2401C27.04 24.3344 26.3058 23.6001 25.4 23.6001C24.4943 23.6001 23.76 24.3344 23.76 25.2401C23.76 26.1458 24.4943 26.8801 25.4 26.8801Z" fill="#FF6723"/>
        <path d="M13.305 2.19344C13.1357 1.9753 12.8216 1.93572 12.6034 2.10504C12.3853 2.27436 12.3457 2.58846 12.515 2.8066C14.0792 4.82178 15.01 7.35463 15.01 10.11C15.01 10.3862 15.2339 10.61 15.51 10.61C15.7519 10.61 15.9537 10.4383 16 10.21C16.0463 10.4383 16.2481 10.61 16.49 10.61C16.7661 10.61 16.99 10.3862 16.99 10.11C16.99 7.35463 17.9208 4.82178 19.485 2.8066C19.6543 2.58846 19.6147 2.27436 19.3966 2.10504C19.1784 1.93572 18.8643 1.9753 18.695 2.19344C17.097 4.25228 16.1087 6.81046 16 9.59613C15.8913 6.81046 14.903 4.25228 13.305 2.19344Z" fill="#212121"/>
        <path d="M16.9168 10.778C17.5602 10.4455 18 9.77414 18 9C18 7.89543 17.1046 7 16 7C14.8954 7 14 7.89543 14 9C14 9.77177 14.4371 10.4414 15.0773 10.7749C14.7211 11.0393 14.49 11.463 14.49 11.94V22.55C14.49 23.35 15.14 24 15.94 24H16.05C16.85 24 17.5 23.35 17.5 22.55V11.94C17.5 11.4648 17.2707 11.0425 16.9168 10.778Z" fill="#321B41"/>
      </g>
    </g>
    <text id="ITEM_3_HEAD" x="725.0" y="718.0" font-weight="700" font-size="26" fill="var(--inverse-text)" text-anchor="middle" data-bg-id="ITEM_3_BG" fill-opacity="1.0" style="font-size: 31px; font-family: 'Segoe UI Variable Display', 'Aptos Display', 'Inter', 'Segoe UI', Helvetica, Arial, sans-serif; font-weight: 700; font-kerning: normal; font-feature-settings: &quot;kern&quot; 1, &quot;liga&quot; 1; letter-spacing:-0.4px;" data-final-font-size="31">
      <tspan x="725.0" dy="56.52px">Transformation Metaphor</tspan>
    </text>
    <text id="ITEM_3_BODY" x="725.0" y="812.0" font-size="21" fill="var(--inverse-text)" text-anchor="middle" data-bg-id="ITEM_3_BG" style="font-size: 23px; font-family: 'Segoe UI Variable Text', 'Aptos', 'Inter', 'Segoe UI', Helvetica, Arial, sans-serif; font-weight: 400; font-kerning: normal; font-feature-settings: &quot;kern&quot; 1, &quot;liga&quot; 1;" data-final-font-size="23">
      <tspan x="725.0" dy="41.42px">Rising from the floor signifies crossing</tspan>
      <tspan x="725.0" dy="26.45px">into another state</tspan>
    </text>
    <rect id="ITEM_4_BG" x="975" y="600" width="480" height="410" rx="16" fill="var(--semantic-evidence)" stroke="var(--accent-4)" stroke-width="2" filter="url(#svg77d7b0e6-shadow)" fill-opacity="1.0"/>
    <rect x="975" y="600" width="480" height="410" rx="16" fill="url(#svg77d7b0e6-card-panel-sheen)" opacity="0.88"/>
    <rect x="975" y="616" width="460" height="12" fill="var(--accent-4)"/>
    <rect id="ITEM_4_HEAD_FRAME" x="990" y="718" width="450" height="96" fill="none"/>
    <rect id="ITEM_4_BODY_FRAME" x="990" y="812" width="450" height="168" fill="none"/>
    <circle id="ITEM_4_PAD" cx="1205" cy="661" r="55" fill="var(--icon-pad-bg)" stroke="var(--semantic-evidence)" opacity="1" fill-opacity="0.9" stroke-width="2" stroke-opacity="0.72" data-badge-layer="pad"/>
    <circle cx="1205" cy="661" r="44" fill="none" stroke="var(--accent-4)" stroke-width="3" stroke-dasharray="6 4" display="none" data-suppressed-decoration="redundant-badge-ring"/>
    <circle id="ITEM_4_BADGE" cx="1205" cy="661" r="43" fill="var(--accent-4)" stroke="var(--background)" stroke-width="4" fill-opacity="0.35" opacity="0.85" stroke-opacity="0.75"/>
    <g id="ITEM_4_ICON" transform="translate(1172, 628)" data-icon-size="66" stroke-linecap="round" stroke-linejoin="round" data-badge-treatment="clean">
      <g transform="translate(-13.535593220338981,-19.352542372881352) scale(3.877966101694915)" vector-effect="non-scaling-stroke" fill="#ffffff" fill-opacity="1.0" stroke="none">
        <path fill="#ffffff" d="M9 6v5H7V7H5v4H3V9H1v12h2v-2h2v2h2v-2h2v2h2v-2h2v2h2v-2h2v2h2v-2h2v2h2V9h-2v2h-2V7h-2v4h-2V6h-2v5h-2V6zm-6 7h2v4H3zm4 0h2v4H7zm4 0h2v4h-2zm4 0h2v4h-2zm4 0h2v4h-2z" vector-effect="non-scaling-stroke" stroke="none"/>
      </g>
    </g>
    <text id="ITEM_4_HEAD" x="1215.0" y="718.0" font-weight="700" font-size="26" fill="var(--inverse-text)" text-anchor="middle" data-bg-id="ITEM_4_BG" fill-opacity="1.0" style="font-size: 31px; font-family: 'Segoe UI Variable Display', 'Aptos Display', 'Inter', 'Segoe UI', Helvetica, Arial, sans-serif; font-weight: 700; font-kerning: normal; font-feature-settings: &quot;kern&quot; 1, &quot;liga&quot; 1; letter-spacing:-0.4px;" data-final-font-size="31">
      <tspan x="1215.0" dy="56.52px">Symbolic Thresholds</tspan>
    </text>
    <text id="ITEM_4_BODY" x="1215.0" y="812.0" font-size="21" fill="var(--inverse-text)" text-anchor="middle" data-bg-id="ITEM_4_BG" style="font-size: 23px; font-family: 'Segoe UI Variable Text', 'Aptos', 'Inter', 'Segoe UI', Helvetica, Arial, sans-serif; font-weight: 400; font-kerning: normal; font-feature-settings: &quot;kern&quot; 1, &quot;liga&quot; 1;" data-final-font-size="23">
      <tspan x="1215.0" dy="41.42px">The stage floor acts as a boundary</tspan>
      <tspan x="1215.0" dy="26.45px">between identities</tspan>
    </text>
  </g>
  <text id="SOURCE_NOTE" x="134.0" y="1058.0" fill="var(--muted-text)" opacity="0.88" style="font-family: var(--font-family); font-size: 20px;">Source: Introduction</text>
  <text id="EDITORIAL_NOTE" x="1786.0" y="1058.0" fill="var(--semantic-uncertain)" opacity="0.92" style="font-family: var(--font-family); font-size: 20px;" text-anchor="end">Interpretations remain disputed; wording reflects source uncertainty.</text>
</svg>
